M48
; DRILL file {KiCad 5.1.6-c6e7f7d~86~ubuntu16.04.1} date Sat May 16 13:50:49 2020
; FORMAT={-:-/ absolute / inch / decimal}
; #@! TF.CreationDate,2020-05-16T13:50:49+09:00
; #@! TF.GenerationSoftware,Kicad,Pcbnew,5.1.6-c6e7f7d~86~ubuntu16.04.1
; #@! TF.FileFunction,Plated,1,2,PTH
FMAT,2
INCH
T1C0.0276
T2C0.0394
T3C0.0906
%
G90
G05
T2
X4.8228Y-7.0079
X4.8228Y-7.1079
X4.9228Y-7.0079
X4.9228Y-7.1079
X4.9213Y-4.5622
X4.9213Y-4.6622
X4.9213Y-4.7622
X4.9213Y-4.8622
X4.9213Y-3.5583
X4.9213Y-3.6583
X4.9213Y-3.7583
X4.9213Y-3.8583
X4.8228Y-5.0
X4.8228Y-5.1
X4.9228Y-5.0
X4.9228Y-5.1
X4.9213Y-6.5701
X4.9213Y-6.6701
X4.9213Y-6.7701
X4.9213Y-6.8701
X6.8685Y-3.9961
X6.8685Y-4.0961
X6.9685Y-3.9961
X6.9685Y-4.0961
X4.8228Y-3.9961
X4.8228Y-4.0961
X4.9228Y-3.9961
X4.9228Y-4.0961
X4.8228Y-6.0039
X4.8228Y-6.1039
X4.9228Y-6.0039
X4.9228Y-6.1039
X6.8685Y-6.0039
X6.8685Y-6.1039
X6.9685Y-6.0039
X6.9685Y-6.1039
X6.8701Y-6.5701
X6.8701Y-6.6701
X6.8701Y-6.7701
X6.8701Y-6.8701
X6.8701Y-4.5622
X6.8701Y-4.6622
X6.8701Y-4.7622
X6.8701Y-4.8622
X6.8685Y-5.0
X6.8685Y-5.1
X6.9685Y-5.0
X6.9685Y-5.1
X6.8701Y-5.5661
X6.8701Y-5.6661
X6.8701Y-5.7661
X6.8701Y-5.8661
X6.8685Y-7.0079
X6.8685Y-7.1079
X6.9685Y-7.0079
X6.9685Y-7.1079
X4.9213Y-5.5661
X4.9213Y-5.6661
X4.9213Y-5.7661
X4.9213Y-5.8661
X6.8701Y-3.5583
X6.8701Y-3.6583
X6.8701Y-3.7583
X6.8701Y-3.8583
T3
X7.2047Y-3.4421
X7.2047Y-3.9594
X7.2047Y-6.4539
X7.2047Y-6.9713
X7.2047Y-5.45
X7.2047Y-5.9673
X7.2047Y-4.4461
X7.2047Y-4.9634
T1
G00X4.6811Y-5.4783
M15
G01X4.6102Y-5.4783
M16
G05
G00X4.6811Y-6.4823
M15
G01X4.6102Y-6.4823
M16
G05
G00X4.6811Y-6.9429
M15
G01X4.6102Y-6.9429
M16
G05
G00X4.6811Y-3.4705
M15
G01X4.6102Y-3.4705
M16
G05
G00X4.6811Y-3.9311
M15
G01X4.6102Y-3.9311
M16
G05
G00X4.6811Y-4.4744
M15
G01X4.6102Y-4.4744
M16
G05
G00X4.6811Y-4.935
M15
G01X4.6102Y-4.935
M16
G05
G00X4.6811Y-5.939
M15
G01X4.6102Y-5.939
M16
G05
T0
M30
