M48
; DRILL file {KiCad 5.1.6-c6e7f7d~86~ubuntu16.04.1} date Sat May 16 13:50:49 2020
; FORMAT={-:-/ absolute / inch / decimal}
; #@! TF.CreationDate,2020-05-16T13:50:49+09:00
; #@! TF.GenerationSoftware,Kicad,Pcbnew,5.1.6-c6e7f7d~86~ubuntu16.04.1
; #@! TF.FileFunction,NonPlated,1,2,NPTH
FMAT,2
INCH
T1C0.0197
T2C0.0315
T3C0.0433
T4C0.1693
%
G90
G05
T1
X5.8169Y-3.9173
X5.8169Y-5.7677
X5.8169Y-5.9252
X5.8169Y-6.6634
X5.9941Y-4.5276
X5.9941Y-6.9291
X5.8169Y-4.7638
X5.9941Y-5.7677
X5.9941Y-3.6516
X5.9941Y-6.7717
X5.8169Y-5.5315
X5.9941Y-5.6594
X5.8169Y-5.8071
X5.9941Y-5.9252
X5.8169Y-4.8031
X5.9941Y-4.7638
X5.9941Y-3.5236
X5.8169Y-5.6594
X5.8169Y-4.9213
X5.8169Y-4.5276
X5.8169Y-3.5236
X5.9941Y-6.6634
X5.9941Y-5.8071
X5.9941Y-6.811
X5.9941Y-3.7992
X5.9941Y-4.9213
X5.9941Y-4.6555
X5.8169Y-3.6516
X5.9941Y-6.5354
X5.8169Y-3.7598
X5.8169Y-6.9291
X5.9941Y-3.7598
X5.9941Y-4.8031
X5.9941Y-3.9173
X5.8169Y-6.5354
X5.8169Y-4.6555
X5.8169Y-6.811
X5.8169Y-3.7992
X5.8169Y-6.7717
X5.9941Y-5.5315
T2
X6.469Y-5.163
X6.5264Y-5.163
X6.5838Y-5.163
X6.6413Y-5.163
X5.032Y-4.2774
X5.0894Y-4.2774
X5.1468Y-4.2774
X5.2042Y-4.2774
X7.158Y-5.2811
X7.2154Y-5.2811
X7.2728Y-5.2811
X7.3302Y-5.2811
X7.158Y-5.163
X7.2154Y-5.163
X7.2728Y-5.163
X7.3302Y-5.163
X5.032Y-5.2814
X5.0894Y-5.2813
X5.1468Y-5.2813
X5.2042Y-5.2813
X6.469Y-5.2811
X6.5264Y-5.2811
X6.5838Y-5.2811
X6.6413Y-5.2811
X6.469Y-6.2851
X6.5264Y-6.2851
X6.5838Y-6.2851
X6.6413Y-6.2851
X5.032Y-6.2853
X5.0894Y-6.2853
X5.1468Y-6.2853
X5.2042Y-6.2852
X5.032Y-4.1593
X5.0894Y-4.1593
X5.1468Y-4.1593
X5.2042Y-4.1593
X7.158Y-6.1669
X7.2154Y-6.1669
X7.2728Y-6.1669
X7.3302Y-6.1669
X7.158Y-6.2851
X7.2154Y-6.2851
X7.2728Y-6.2851
X7.3302Y-6.2851
X7.158Y-4.2772
X7.2154Y-4.2772
X7.2728Y-4.2772
X7.3302Y-4.2772
X5.032Y-5.1633
X5.0894Y-5.1632
X5.1468Y-5.1632
X5.2042Y-5.1632
X7.158Y-4.1591
X7.2154Y-4.1591
X7.2728Y-4.1591
X7.3302Y-4.1591
X6.469Y-6.1669
X6.5264Y-6.1669
X6.5838Y-6.1669
X6.6413Y-6.1669
X6.469Y-4.1591
X6.5264Y-4.1591
X6.5838Y-4.1591
X6.6413Y-4.1591
X5.032Y-6.1672
X5.0894Y-6.1672
X5.1468Y-6.1671
X5.2042Y-6.1671
X6.469Y-4.2772
X6.5264Y-4.2772
X6.5838Y-4.2772
X6.6413Y-4.2772
T3
X4.6457Y-5.6201
X4.6457Y-5.7972
X4.6457Y-6.624
X4.6457Y-6.8012
X4.6457Y-3.6122
X4.6457Y-3.7894
X4.6457Y-4.6161
X4.6457Y-4.7933
T4
X5.5118Y-6.437
X5.5118Y-4.0157
X6.2795Y-5.0197
X5.5118Y-5.4331
X5.5118Y-4.4291
X6.2795Y-4.0157
X6.2795Y-3.4252
X5.5118Y-7.0276
X5.5118Y-6.0236
X6.2795Y-7.0276
X5.5118Y-5.0197
X6.2795Y-5.4331
X5.5118Y-3.4252
X6.2795Y-6.437
X6.2795Y-6.0236
X6.2795Y-4.4291
T0
M30
