G04 #@! TF.GenerationSoftware,KiCad,Pcbnew,5.1.6-c6e7f7d~86~ubuntu16.04.1*
G04 #@! TF.CreationDate,2020-05-16T13:50:45+09:00*
G04 #@! TF.ProjectId,output.usb_breakout_array,6f757470-7574-42e7-9573-625f62726561,rev?*
G04 #@! TF.SameCoordinates,Original*
G04 #@! TF.FileFunction,Profile,NP*
%FSLAX46Y46*%
G04 Gerber Fmt 4.6, Leading zero omitted, Abs format (unit mm)*
G04 Created by KiCad (PCBNEW 5.1.6-c6e7f7d~86~ubuntu16.04.1) date 2020-05-16 13:50:45*
%MOMM*%
%LPD*%
G01*
G04 APERTURE LIST*
G04 #@! TA.AperFunction,Profile*
%ADD10C,0.200000*%
G04 #@! TD*
G04 #@! TA.AperFunction,Profile*
%ADD11C,0.100000*%
G04 #@! TD*
G04 APERTURE END LIST*
D10*
X120000000Y-182400000D02*
X143000001Y-182390491D01*
X148000000Y-164500000D02*
X148000000Y-164390491D01*
X148000000Y-139000000D02*
X148000000Y-138890491D01*
X148000000Y-113500000D02*
X148000000Y-113390491D01*
X157000001Y-182390492D02*
G75*
G02*
X152000001Y-177390492I0J5000000D01*
G01*
X157000001Y-156890492D02*
G75*
G02*
X152000001Y-151890492I0J5000000D01*
G01*
X157000001Y-131390492D02*
G75*
G02*
X152000001Y-126390492I0J5000000D01*
G01*
X189000001Y-159390492D02*
G75*
G02*
X194000001Y-164390492I0J-5000000D01*
G01*
X189000001Y-133890492D02*
G75*
G02*
X194000001Y-138890492I0J-5000000D01*
G01*
X189000001Y-108390492D02*
G75*
G02*
X194000001Y-113390492I0J-5000000D01*
G01*
X148000001Y-177390491D02*
X148000001Y-177177914D01*
X148000001Y-151890491D02*
X148000001Y-151677914D01*
X148000001Y-126390491D02*
X148000001Y-126177914D01*
X152000001Y-164500000D02*
X152000001Y-164390491D01*
X152000001Y-139000000D02*
X152000001Y-138890491D01*
X152000001Y-113500000D02*
X152000001Y-113390491D01*
X115000000Y-164400000D02*
G75*
G02*
X120000000Y-159400000I5000000J0D01*
G01*
X115000000Y-138900000D02*
G75*
G02*
X120000000Y-133900000I5000000J0D01*
G01*
X115000000Y-113400000D02*
G75*
G02*
X120000000Y-108400000I5000000J0D01*
G01*
X148000001Y-177390491D02*
G75*
G02*
X143000001Y-182390491I-5000000J0D01*
G01*
X148000001Y-151890491D02*
G75*
G02*
X143000001Y-156890491I-5000000J0D01*
G01*
X148000001Y-126390491D02*
G75*
G02*
X143000001Y-131390491I-5000000J0D01*
G01*
X194000001Y-177390491D02*
G75*
G02*
X189000001Y-182390491I-5000000J0D01*
G01*
X194000001Y-151890491D02*
G75*
G02*
X189000001Y-156890491I-5000000J0D01*
G01*
X194000001Y-126390491D02*
G75*
G02*
X189000001Y-131390491I-5000000J0D01*
G01*
X194000001Y-164390492D02*
X194000001Y-177390491D01*
X194000001Y-138890492D02*
X194000001Y-151890491D01*
X194000001Y-113390492D02*
X194000001Y-126390491D01*
X189000001Y-182390491D02*
X157000001Y-182390491D01*
X120000000Y-182400000D02*
G75*
G02*
X115000000Y-177400000I0J5000000D01*
G01*
X120000000Y-156900000D02*
G75*
G02*
X115000000Y-151900000I0J5000000D01*
G01*
X120000000Y-131400000D02*
G75*
G02*
X115000000Y-126400000I0J5000000D01*
G01*
X148000001Y-177177914D02*
G75*
G02*
X148984513Y-176178034I1000000J0D01*
G01*
X148000001Y-151677914D02*
G75*
G02*
X148984513Y-150678034I1000000J0D01*
G01*
X148000001Y-126177914D02*
G75*
G02*
X148984513Y-125178034I1000000J0D01*
G01*
X152000001Y-177390492D02*
X152000001Y-177163497D01*
X152000001Y-151890492D02*
X152000001Y-151663497D01*
X152000001Y-126390492D02*
X152000001Y-126163497D01*
X152000001Y-164500000D02*
G75*
G02*
X151000001Y-165500000I-1000000J0D01*
G01*
X152000001Y-139000000D02*
G75*
G02*
X151000001Y-140000000I-1000000J0D01*
G01*
X152000001Y-113500000D02*
G75*
G02*
X151000001Y-114500000I-1000000J0D01*
G01*
X151000105Y-176178033D02*
G75*
G02*
X152000001Y-177163497I1J-1000001D01*
G01*
X151000105Y-150678033D02*
G75*
G02*
X152000001Y-151663497I1J-1000001D01*
G01*
X151000105Y-125178033D02*
G75*
G02*
X152000001Y-126163497I1J-1000001D01*
G01*
X152000001Y-164390492D02*
G75*
G02*
X157000001Y-159390492I5000000J0D01*
G01*
X152000001Y-138890492D02*
G75*
G02*
X157000001Y-133890492I5000000J0D01*
G01*
X152000001Y-113390492D02*
G75*
G02*
X157000001Y-108390492I5000000J0D01*
G01*
X149000000Y-165500000D02*
G75*
G02*
X148000000Y-164500000I0J1000000D01*
G01*
X149000000Y-140000000D02*
G75*
G02*
X148000000Y-139000000I0J1000000D01*
G01*
X149000000Y-114500000D02*
G75*
G02*
X148000000Y-113500000I0J1000000D01*
G01*
X143000001Y-159390492D02*
G75*
G02*
X148000000Y-164390491I0J-4999999D01*
G01*
X143000001Y-133890492D02*
G75*
G02*
X148000000Y-138890491I0J-4999999D01*
G01*
X143000001Y-108390492D02*
G75*
G02*
X148000000Y-113390491I0J-4999999D01*
G01*
X115000000Y-164400000D02*
X115000000Y-177400000D01*
X115000000Y-138900000D02*
X115000000Y-151900000D01*
X115000000Y-113400000D02*
X115000000Y-126400000D01*
X148984513Y-176178034D02*
X151000106Y-176178034D01*
X148984513Y-150678034D02*
X151000106Y-150678034D01*
X148984513Y-125178034D02*
X151000106Y-125178034D01*
X149000000Y-165500000D02*
X151000001Y-165500000D01*
X149000000Y-140000000D02*
X151000001Y-140000000D01*
X149000000Y-114500000D02*
X151000001Y-114500000D01*
X149000000Y-89000000D02*
G75*
G02*
X148000000Y-88000000I0J1000000D01*
G01*
X152000001Y-88000000D02*
G75*
G02*
X151000001Y-89000000I-1000000J0D01*
G01*
X152000001Y-100890492D02*
X152000001Y-100663497D01*
X143000001Y-82890492D02*
G75*
G02*
X148000000Y-87890491I0J-4999999D01*
G01*
X157000001Y-82890492D02*
X189000001Y-82890492D01*
X152000001Y-87890492D02*
G75*
G02*
X157000001Y-82890492I5000000J0D01*
G01*
X148984513Y-99678034D02*
X151000106Y-99678034D01*
X148000001Y-100677914D02*
G75*
G02*
X148984513Y-99678034I1000000J0D01*
G01*
X120000000Y-105900000D02*
G75*
G02*
X115000000Y-100900000I0J5000000D01*
G01*
X151000105Y-99678033D02*
G75*
G02*
X152000001Y-100663497I1J-1000001D01*
G01*
X115000000Y-87900000D02*
X115000000Y-100900000D01*
X194000001Y-87890492D02*
X194000001Y-100890491D01*
X194000001Y-100890491D02*
G75*
G02*
X189000001Y-105890491I-5000000J0D01*
G01*
X143000001Y-82890491D02*
X120000000Y-82900000D01*
X148000001Y-100890491D02*
G75*
G02*
X143000001Y-105890491I-5000000J0D01*
G01*
X115000000Y-87900000D02*
G75*
G02*
X120000000Y-82900000I5000000J0D01*
G01*
X152000001Y-88000000D02*
X152000001Y-87890491D01*
X148000001Y-100890491D02*
X148000001Y-100677914D01*
X189000001Y-82890492D02*
G75*
G02*
X194000001Y-87890492I0J-5000000D01*
G01*
X157000001Y-105890492D02*
G75*
G02*
X152000001Y-100890492I0J5000000D01*
G01*
X148000000Y-88000000D02*
X148000000Y-87890491D01*
X149000000Y-89000000D02*
X151000001Y-89000000D01*
D11*
X186500000Y-156890491D02*
X189000001Y-156890491D01*
X186500000Y-159390492D02*
X189000001Y-159390492D01*
X181500002Y-159390492D02*
X181599502Y-159380505D01*
X181500002Y-156890491D02*
X181599502Y-156900478D01*
X181599502Y-159380505D02*
X181697507Y-159360630D01*
X181599502Y-156900478D02*
X181697507Y-156920353D01*
X181697507Y-159360630D02*
X181793037Y-159331066D01*
X181697507Y-156920353D02*
X181793037Y-156949917D01*
X181793037Y-159331066D02*
X181885137Y-159292109D01*
X181793037Y-156949917D02*
X181885137Y-156988874D01*
X181885137Y-159292109D02*
X181972886Y-159244148D01*
X181885137Y-156988874D02*
X181972886Y-157036835D01*
X181972886Y-159244148D02*
X182055406Y-159187663D01*
X181972886Y-157036835D02*
X182055406Y-157093320D01*
X182055406Y-159187663D02*
X182131872Y-159123219D01*
X182055406Y-157093320D02*
X182131872Y-157157764D01*
X182131872Y-159123219D02*
X182201519Y-159051460D01*
X182131872Y-157157764D02*
X182201519Y-157229523D01*
X182201519Y-159051460D02*
X182263651Y-158973104D01*
X182201519Y-157229523D02*
X182263651Y-157307879D01*
X182263651Y-158973104D02*
X182317647Y-158888934D01*
X182263651Y-157307879D02*
X182317647Y-157392049D01*
X182317647Y-158888934D02*
X182362967Y-158799792D01*
X182317647Y-157392049D02*
X182362967Y-157481191D01*
X182362967Y-158799792D02*
X182399157Y-158706569D01*
X182362967Y-157481191D02*
X182399157Y-157574414D01*
X182399157Y-158706569D02*
X182425855Y-158610198D01*
X182399157Y-157574414D02*
X182425855Y-157670785D01*
X182425855Y-158610198D02*
X182442794Y-158511642D01*
X182425855Y-157670785D02*
X182442794Y-157769341D01*
X182442794Y-158511642D02*
X182449805Y-158411887D01*
X182442794Y-157769341D02*
X182449805Y-157869096D01*
X182449805Y-157869096D02*
X182449805Y-158411887D01*
X186500000Y-159390492D02*
X186400500Y-159380505D01*
X186500000Y-156890491D02*
X186400500Y-156900478D01*
X186400500Y-159380505D02*
X186302495Y-159360630D01*
X186400500Y-156900478D02*
X186302495Y-156920353D01*
X186302495Y-159360630D02*
X186206965Y-159331066D01*
X186302495Y-156920353D02*
X186206965Y-156949917D01*
X186206965Y-159331066D02*
X186114865Y-159292109D01*
X186206965Y-156949917D02*
X186114865Y-156988874D01*
X186114865Y-159292109D02*
X186027116Y-159244148D01*
X186114865Y-156988874D02*
X186027116Y-157036835D01*
X186027116Y-159244148D02*
X185944596Y-159187663D01*
X186027116Y-157036835D02*
X185944596Y-157093320D01*
X185944596Y-159187663D02*
X185868130Y-159123219D01*
X185944596Y-157093320D02*
X185868130Y-157157764D01*
X185868130Y-159123219D02*
X185798483Y-159051460D01*
X185868130Y-157157764D02*
X185798483Y-157229523D01*
X185798483Y-159051460D02*
X185736351Y-158973104D01*
X185798483Y-157229523D02*
X185736351Y-157307879D01*
X185736351Y-158973104D02*
X185682355Y-158888934D01*
X185736351Y-157307879D02*
X185682355Y-157392049D01*
X185682355Y-158888934D02*
X185637035Y-158799792D01*
X185682355Y-157392049D02*
X185637035Y-157481191D01*
X185637035Y-158799792D02*
X185600845Y-158706569D01*
X185637035Y-157481191D02*
X185600845Y-157574414D01*
X185600845Y-158706569D02*
X185574147Y-158610198D01*
X185600845Y-157574414D02*
X185574147Y-157670785D01*
X185574147Y-158610198D02*
X185557208Y-158511642D01*
X185574147Y-157670785D02*
X185557208Y-157769341D01*
X185557208Y-158511642D02*
X185550197Y-158411887D01*
X185557208Y-157769341D02*
X185550197Y-157869096D01*
X185550197Y-157869096D02*
X185550197Y-158411887D01*
X186500000Y-131390491D02*
X189000001Y-131390491D01*
X186500000Y-133890492D02*
X189000001Y-133890492D01*
X181500002Y-133890492D02*
X181599502Y-133880505D01*
X181500002Y-131390491D02*
X181599502Y-131400478D01*
X181599502Y-133880505D02*
X181697507Y-133860630D01*
X181599502Y-131400478D02*
X181697507Y-131420353D01*
X181697507Y-133860630D02*
X181793037Y-133831066D01*
X181697507Y-131420353D02*
X181793037Y-131449917D01*
X181793037Y-133831066D02*
X181885137Y-133792109D01*
X181793037Y-131449917D02*
X181885137Y-131488874D01*
X181885137Y-133792109D02*
X181972886Y-133744148D01*
X181885137Y-131488874D02*
X181972886Y-131536835D01*
X181972886Y-133744148D02*
X182055406Y-133687663D01*
X181972886Y-131536835D02*
X182055406Y-131593320D01*
X182055406Y-133687663D02*
X182131872Y-133623219D01*
X182055406Y-131593320D02*
X182131872Y-131657764D01*
X182131872Y-133623219D02*
X182201519Y-133551460D01*
X182131872Y-131657764D02*
X182201519Y-131729523D01*
X182201519Y-133551460D02*
X182263651Y-133473104D01*
X182201519Y-131729523D02*
X182263651Y-131807879D01*
X182263651Y-133473104D02*
X182317647Y-133388934D01*
X182263651Y-131807879D02*
X182317647Y-131892049D01*
X182317647Y-133388934D02*
X182362967Y-133299792D01*
X182317647Y-131892049D02*
X182362967Y-131981191D01*
X182362967Y-133299792D02*
X182399157Y-133206569D01*
X182362967Y-131981191D02*
X182399157Y-132074414D01*
X182399157Y-133206569D02*
X182425855Y-133110198D01*
X182399157Y-132074414D02*
X182425855Y-132170785D01*
X182425855Y-133110198D02*
X182442794Y-133011642D01*
X182425855Y-132170785D02*
X182442794Y-132269341D01*
X182442794Y-133011642D02*
X182449805Y-132911887D01*
X182442794Y-132269341D02*
X182449805Y-132369096D01*
X182449805Y-132369096D02*
X182449805Y-132911887D01*
X186500000Y-133890492D02*
X186400500Y-133880505D01*
X186500000Y-131390491D02*
X186400500Y-131400478D01*
X186400500Y-133880505D02*
X186302495Y-133860630D01*
X186400500Y-131400478D02*
X186302495Y-131420353D01*
X186302495Y-133860630D02*
X186206965Y-133831066D01*
X186302495Y-131420353D02*
X186206965Y-131449917D01*
X186206965Y-133831066D02*
X186114865Y-133792109D01*
X186206965Y-131449917D02*
X186114865Y-131488874D01*
X186114865Y-133792109D02*
X186027116Y-133744148D01*
X186114865Y-131488874D02*
X186027116Y-131536835D01*
X186027116Y-133744148D02*
X185944596Y-133687663D01*
X186027116Y-131536835D02*
X185944596Y-131593320D01*
X185944596Y-133687663D02*
X185868130Y-133623219D01*
X185944596Y-131593320D02*
X185868130Y-131657764D01*
X185868130Y-133623219D02*
X185798483Y-133551460D01*
X185868130Y-131657764D02*
X185798483Y-131729523D01*
X185798483Y-133551460D02*
X185736351Y-133473104D01*
X185798483Y-131729523D02*
X185736351Y-131807879D01*
X185736351Y-133473104D02*
X185682355Y-133388934D01*
X185736351Y-131807879D02*
X185682355Y-131892049D01*
X185682355Y-133388934D02*
X185637035Y-133299792D01*
X185682355Y-131892049D02*
X185637035Y-131981191D01*
X185637035Y-133299792D02*
X185600845Y-133206569D01*
X185637035Y-131981191D02*
X185600845Y-132074414D01*
X185600845Y-133206569D02*
X185574147Y-133110198D01*
X185600845Y-132074414D02*
X185574147Y-132170785D01*
X185574147Y-133110198D02*
X185557208Y-133011642D01*
X185574147Y-132170785D02*
X185557208Y-132269341D01*
X185557208Y-133011642D02*
X185550197Y-132911887D01*
X185557208Y-132269341D02*
X185550197Y-132369096D01*
X185550197Y-132369096D02*
X185550197Y-132911887D01*
X186500000Y-105890491D02*
X189000001Y-105890491D01*
X186500000Y-108390492D02*
X189000001Y-108390492D01*
X181500002Y-108390492D02*
X181599502Y-108380505D01*
X181500002Y-105890491D02*
X181599502Y-105900478D01*
X181599502Y-108380505D02*
X181697507Y-108360630D01*
X181599502Y-105900478D02*
X181697507Y-105920353D01*
X181697507Y-108360630D02*
X181793037Y-108331066D01*
X181697507Y-105920353D02*
X181793037Y-105949917D01*
X181793037Y-108331066D02*
X181885137Y-108292109D01*
X181793037Y-105949917D02*
X181885137Y-105988874D01*
X181885137Y-108292109D02*
X181972886Y-108244148D01*
X181885137Y-105988874D02*
X181972886Y-106036835D01*
X181972886Y-108244148D02*
X182055406Y-108187663D01*
X181972886Y-106036835D02*
X182055406Y-106093320D01*
X182055406Y-108187663D02*
X182131872Y-108123219D01*
X182055406Y-106093320D02*
X182131872Y-106157764D01*
X182131872Y-108123219D02*
X182201519Y-108051460D01*
X182131872Y-106157764D02*
X182201519Y-106229523D01*
X182201519Y-108051460D02*
X182263651Y-107973104D01*
X182201519Y-106229523D02*
X182263651Y-106307879D01*
X182263651Y-107973104D02*
X182317647Y-107888934D01*
X182263651Y-106307879D02*
X182317647Y-106392049D01*
X182317647Y-107888934D02*
X182362967Y-107799792D01*
X182317647Y-106392049D02*
X182362967Y-106481191D01*
X182362967Y-107799792D02*
X182399157Y-107706569D01*
X182362967Y-106481191D02*
X182399157Y-106574414D01*
X182399157Y-107706569D02*
X182425855Y-107610198D01*
X182399157Y-106574414D02*
X182425855Y-106670785D01*
X182425855Y-107610198D02*
X182442794Y-107511642D01*
X182425855Y-106670785D02*
X182442794Y-106769341D01*
X182442794Y-107511642D02*
X182449805Y-107411887D01*
X182442794Y-106769341D02*
X182449805Y-106869096D01*
X182449805Y-106869096D02*
X182449805Y-107411887D01*
X186500000Y-108390492D02*
X186400500Y-108380505D01*
X186500000Y-105890491D02*
X186400500Y-105900478D01*
X186400500Y-108380505D02*
X186302495Y-108360630D01*
X186400500Y-105900478D02*
X186302495Y-105920353D01*
X186302495Y-108360630D02*
X186206965Y-108331066D01*
X186302495Y-105920353D02*
X186206965Y-105949917D01*
X186206965Y-108331066D02*
X186114865Y-108292109D01*
X186206965Y-105949917D02*
X186114865Y-105988874D01*
X186114865Y-108292109D02*
X186027116Y-108244148D01*
X186114865Y-105988874D02*
X186027116Y-106036835D01*
X186027116Y-108244148D02*
X185944596Y-108187663D01*
X186027116Y-106036835D02*
X185944596Y-106093320D01*
X185944596Y-108187663D02*
X185868130Y-108123219D01*
X185944596Y-106093320D02*
X185868130Y-106157764D01*
X185868130Y-108123219D02*
X185798483Y-108051460D01*
X185868130Y-106157764D02*
X185798483Y-106229523D01*
X185798483Y-108051460D02*
X185736351Y-107973104D01*
X185798483Y-106229523D02*
X185736351Y-106307879D01*
X185736351Y-107973104D02*
X185682355Y-107888934D01*
X185736351Y-106307879D02*
X185682355Y-106392049D01*
X185682355Y-107888934D02*
X185637035Y-107799792D01*
X185682355Y-106392049D02*
X185637035Y-106481191D01*
X185637035Y-107799792D02*
X185600845Y-107706569D01*
X185637035Y-106481191D02*
X185600845Y-106574414D01*
X185600845Y-107706569D02*
X185574147Y-107610198D01*
X185600845Y-106574414D02*
X185574147Y-106670785D01*
X185574147Y-107610198D02*
X185557208Y-107511642D01*
X185574147Y-106670785D02*
X185557208Y-106769341D01*
X185557208Y-107511642D02*
X185550197Y-107411887D01*
X185557208Y-106769341D02*
X185550197Y-106869096D01*
X185550197Y-106869096D02*
X185550197Y-107411887D01*
X169000013Y-105890491D02*
X181500002Y-105890491D01*
X164000005Y-105890491D02*
X157000001Y-105890491D01*
X169000013Y-108390492D02*
X181500002Y-108390492D01*
X164000005Y-108390492D02*
X157000001Y-108390492D01*
X164000005Y-108390492D02*
X164099505Y-108380505D01*
X164000005Y-105890491D02*
X164099505Y-105900478D01*
X164099505Y-108380505D02*
X164197510Y-108360630D01*
X164099505Y-105900478D02*
X164197510Y-105920353D01*
X164197510Y-108360630D02*
X164293040Y-108331066D01*
X164197510Y-105920353D02*
X164293040Y-105949917D01*
X164293040Y-108331066D02*
X164385140Y-108292109D01*
X164293040Y-105949917D02*
X164385140Y-105988874D01*
X164385140Y-108292109D02*
X164472889Y-108244148D01*
X164385140Y-105988874D02*
X164472889Y-106036835D01*
X164472889Y-108244148D02*
X164555409Y-108187663D01*
X164472889Y-106036835D02*
X164555409Y-106093320D01*
X164555409Y-108187663D02*
X164631875Y-108123219D01*
X164555409Y-106093320D02*
X164631875Y-106157764D01*
X164631875Y-108123219D02*
X164701522Y-108051460D01*
X164631875Y-106157764D02*
X164701522Y-106229523D01*
X164701522Y-108051460D02*
X164763654Y-107973104D01*
X164701522Y-106229523D02*
X164763654Y-106307879D01*
X164763654Y-107973104D02*
X164817650Y-107888934D01*
X164763654Y-106307879D02*
X164817650Y-106392049D01*
X164817650Y-107888934D02*
X164862970Y-107799792D01*
X164817650Y-106392049D02*
X164862970Y-106481191D01*
X164862970Y-107799792D02*
X164899160Y-107706569D01*
X164862970Y-106481191D02*
X164899160Y-106574414D01*
X164899160Y-107706569D02*
X164925858Y-107610198D01*
X164899160Y-106574414D02*
X164925858Y-106670785D01*
X164925858Y-107610198D02*
X164942797Y-107511642D01*
X164925858Y-106670785D02*
X164942797Y-106769341D01*
X164942797Y-107511642D02*
X164949808Y-107411887D01*
X164942797Y-106769341D02*
X164949808Y-106869096D01*
X164949808Y-106869096D02*
X164949808Y-107411887D01*
X169000013Y-108390492D02*
X168900513Y-108380505D01*
X169000013Y-105890491D02*
X168900513Y-105900478D01*
X168900513Y-108380505D02*
X168802508Y-108360630D01*
X168900513Y-105900478D02*
X168802508Y-105920353D01*
X168802508Y-108360630D02*
X168706978Y-108331066D01*
X168802508Y-105920353D02*
X168706978Y-105949917D01*
X168706978Y-108331066D02*
X168614878Y-108292109D01*
X168706978Y-105949917D02*
X168614878Y-105988874D01*
X168614878Y-108292109D02*
X168527129Y-108244148D01*
X168614878Y-105988874D02*
X168527129Y-106036835D01*
X168527129Y-108244148D02*
X168444609Y-108187663D01*
X168527129Y-106036835D02*
X168444609Y-106093320D01*
X168444609Y-108187663D02*
X168368143Y-108123219D01*
X168444609Y-106093320D02*
X168368143Y-106157764D01*
X168368143Y-108123219D02*
X168298496Y-108051460D01*
X168368143Y-106157764D02*
X168298496Y-106229523D01*
X168298496Y-108051460D02*
X168236364Y-107973104D01*
X168298496Y-106229523D02*
X168236364Y-106307879D01*
X168236364Y-107973104D02*
X168182368Y-107888934D01*
X168236364Y-106307879D02*
X168182368Y-106392049D01*
X168182368Y-107888934D02*
X168137048Y-107799792D01*
X168182368Y-106392049D02*
X168137048Y-106481191D01*
X168137048Y-107799792D02*
X168100858Y-107706569D01*
X168137048Y-106481191D02*
X168100858Y-106574414D01*
X168100858Y-107706569D02*
X168074160Y-107610198D01*
X168100858Y-106574414D02*
X168074160Y-106670785D01*
X168074160Y-107610198D02*
X168057221Y-107511642D01*
X168074160Y-106670785D02*
X168057221Y-106769341D01*
X168057221Y-107511642D02*
X168050210Y-107411887D01*
X168057221Y-106769341D02*
X168050210Y-106869096D01*
X168050210Y-106869096D02*
X168050210Y-107411887D01*
X169000013Y-133890492D02*
X181500002Y-133890492D01*
X164000005Y-133890492D02*
X157000001Y-133890492D01*
X169000013Y-131390491D02*
X181500002Y-131390491D01*
X164000005Y-131390491D02*
X157000001Y-131390491D01*
X169000013Y-131390491D02*
X168900513Y-131400478D01*
X169000013Y-133890492D02*
X168900513Y-133880505D01*
X168900513Y-131400478D02*
X168802508Y-131420353D01*
X168900513Y-133880505D02*
X168802508Y-133860630D01*
X168802508Y-131420353D02*
X168706978Y-131449917D01*
X168802508Y-133860630D02*
X168706978Y-133831066D01*
X168706978Y-131449917D02*
X168614878Y-131488874D01*
X168706978Y-133831066D02*
X168614878Y-133792109D01*
X168614878Y-131488874D02*
X168527129Y-131536835D01*
X168614878Y-133792109D02*
X168527129Y-133744148D01*
X168527129Y-131536835D02*
X168444609Y-131593320D01*
X168527129Y-133744148D02*
X168444609Y-133687663D01*
X168444609Y-131593320D02*
X168368143Y-131657764D01*
X168444609Y-133687663D02*
X168368143Y-133623219D01*
X168368143Y-131657764D02*
X168298496Y-131729523D01*
X168368143Y-133623219D02*
X168298496Y-133551460D01*
X168298496Y-131729523D02*
X168236364Y-131807879D01*
X168298496Y-133551460D02*
X168236364Y-133473104D01*
X168236364Y-131807879D02*
X168182368Y-131892049D01*
X168236364Y-133473104D02*
X168182368Y-133388934D01*
X168182368Y-131892049D02*
X168137048Y-131981191D01*
X168182368Y-133388934D02*
X168137048Y-133299792D01*
X168137048Y-131981191D02*
X168100858Y-132074414D01*
X168137048Y-133299792D02*
X168100858Y-133206569D01*
X168100858Y-132074414D02*
X168074160Y-132170785D01*
X168100858Y-133206569D02*
X168074160Y-133110198D01*
X168074160Y-132170785D02*
X168057221Y-132269341D01*
X168074160Y-133110198D02*
X168057221Y-133011642D01*
X168057221Y-132269341D02*
X168050210Y-132369096D01*
X168057221Y-133011642D02*
X168050210Y-132911887D01*
X168050210Y-132911887D02*
X168050210Y-132369096D01*
X164000005Y-131390491D02*
X164099505Y-131400478D01*
X164000005Y-133890492D02*
X164099505Y-133880505D01*
X164099505Y-131400478D02*
X164197510Y-131420353D01*
X164099505Y-133880505D02*
X164197510Y-133860630D01*
X164197510Y-131420353D02*
X164293040Y-131449917D01*
X164197510Y-133860630D02*
X164293040Y-133831066D01*
X164293040Y-131449917D02*
X164385140Y-131488874D01*
X164293040Y-133831066D02*
X164385140Y-133792109D01*
X164385140Y-131488874D02*
X164472889Y-131536835D01*
X164385140Y-133792109D02*
X164472889Y-133744148D01*
X164472889Y-131536835D02*
X164555409Y-131593320D01*
X164472889Y-133744148D02*
X164555409Y-133687663D01*
X164555409Y-131593320D02*
X164631875Y-131657764D01*
X164555409Y-133687663D02*
X164631875Y-133623219D01*
X164631875Y-131657764D02*
X164701522Y-131729523D01*
X164631875Y-133623219D02*
X164701522Y-133551460D01*
X164701522Y-131729523D02*
X164763654Y-131807879D01*
X164701522Y-133551460D02*
X164763654Y-133473104D01*
X164763654Y-131807879D02*
X164817650Y-131892049D01*
X164763654Y-133473104D02*
X164817650Y-133388934D01*
X164817650Y-131892049D02*
X164862970Y-131981191D01*
X164817650Y-133388934D02*
X164862970Y-133299792D01*
X164862970Y-131981191D02*
X164899160Y-132074414D01*
X164862970Y-133299792D02*
X164899160Y-133206569D01*
X164899160Y-132074414D02*
X164925858Y-132170785D01*
X164899160Y-133206569D02*
X164925858Y-133110198D01*
X164925858Y-132170785D02*
X164942797Y-132269341D01*
X164925858Y-133110198D02*
X164942797Y-133011642D01*
X164942797Y-132269341D02*
X164949808Y-132369096D01*
X164942797Y-133011642D02*
X164949808Y-132911887D01*
X164949808Y-132911887D02*
X164949808Y-132369096D01*
X169000013Y-159390492D02*
X181500002Y-159390492D01*
X164000005Y-159390492D02*
X157000001Y-159390492D01*
X169000013Y-156890491D02*
X181500002Y-156890491D01*
X164000005Y-156890491D02*
X157000001Y-156890491D01*
X169000013Y-156890491D02*
X168900513Y-156900478D01*
X169000013Y-159390492D02*
X168900513Y-159380505D01*
X168900513Y-156900478D02*
X168802508Y-156920353D01*
X168900513Y-159380505D02*
X168802508Y-159360630D01*
X168802508Y-156920353D02*
X168706978Y-156949917D01*
X168802508Y-159360630D02*
X168706978Y-159331066D01*
X168706978Y-156949917D02*
X168614878Y-156988874D01*
X168706978Y-159331066D02*
X168614878Y-159292109D01*
X168614878Y-156988874D02*
X168527129Y-157036835D01*
X168614878Y-159292109D02*
X168527129Y-159244148D01*
X168527129Y-157036835D02*
X168444609Y-157093320D01*
X168527129Y-159244148D02*
X168444609Y-159187663D01*
X168444609Y-157093320D02*
X168368143Y-157157764D01*
X168444609Y-159187663D02*
X168368143Y-159123219D01*
X168368143Y-157157764D02*
X168298496Y-157229523D01*
X168368143Y-159123219D02*
X168298496Y-159051460D01*
X168298496Y-157229523D02*
X168236364Y-157307879D01*
X168298496Y-159051460D02*
X168236364Y-158973104D01*
X168236364Y-157307879D02*
X168182368Y-157392049D01*
X168236364Y-158973104D02*
X168182368Y-158888934D01*
X168182368Y-157392049D02*
X168137048Y-157481191D01*
X168182368Y-158888934D02*
X168137048Y-158799792D01*
X168137048Y-157481191D02*
X168100858Y-157574414D01*
X168137048Y-158799792D02*
X168100858Y-158706569D01*
X168100858Y-157574414D02*
X168074160Y-157670785D01*
X168100858Y-158706569D02*
X168074160Y-158610198D01*
X168074160Y-157670785D02*
X168057221Y-157769341D01*
X168074160Y-158610198D02*
X168057221Y-158511642D01*
X168057221Y-157769341D02*
X168050210Y-157869096D01*
X168057221Y-158511642D02*
X168050210Y-158411887D01*
X168050210Y-158411887D02*
X168050210Y-157869096D01*
X164000005Y-156890491D02*
X164099505Y-156900478D01*
X164000005Y-159390492D02*
X164099505Y-159380505D01*
X164099505Y-156900478D02*
X164197510Y-156920353D01*
X164099505Y-159380505D02*
X164197510Y-159360630D01*
X164197510Y-156920353D02*
X164293040Y-156949917D01*
X164197510Y-159360630D02*
X164293040Y-159331066D01*
X164293040Y-156949917D02*
X164385140Y-156988874D01*
X164293040Y-159331066D02*
X164385140Y-159292109D01*
X164385140Y-156988874D02*
X164472889Y-157036835D01*
X164385140Y-159292109D02*
X164472889Y-159244148D01*
X164472889Y-157036835D02*
X164555409Y-157093320D01*
X164472889Y-159244148D02*
X164555409Y-159187663D01*
X164555409Y-157093320D02*
X164631875Y-157157764D01*
X164555409Y-159187663D02*
X164631875Y-159123219D01*
X164631875Y-157157764D02*
X164701522Y-157229523D01*
X164631875Y-159123219D02*
X164701522Y-159051460D01*
X164701522Y-157229523D02*
X164763654Y-157307879D01*
X164701522Y-159051460D02*
X164763654Y-158973104D01*
X164763654Y-157307879D02*
X164817650Y-157392049D01*
X164763654Y-158973104D02*
X164817650Y-158888934D01*
X164817650Y-157392049D02*
X164862970Y-157481191D01*
X164817650Y-158888934D02*
X164862970Y-158799792D01*
X164862970Y-157481191D02*
X164899160Y-157574414D01*
X164862970Y-158799792D02*
X164899160Y-158706569D01*
X164899160Y-157574414D02*
X164925858Y-157670785D01*
X164899160Y-158706569D02*
X164925858Y-158610198D01*
X164925858Y-157670785D02*
X164942797Y-157769341D01*
X164925858Y-158610198D02*
X164942797Y-158511642D01*
X164942797Y-157769341D02*
X164949808Y-157869096D01*
X164942797Y-158511642D02*
X164949808Y-158411887D01*
X164949808Y-158411887D02*
X164949808Y-157869096D01*
X127500000Y-156896899D02*
X120000000Y-156900000D01*
X132499998Y-156894833D02*
X143000001Y-156890491D01*
X132499998Y-159394833D02*
X143000001Y-159390491D01*
X127500000Y-159396899D02*
X120000000Y-159400000D01*
X127500000Y-156896899D02*
X127599504Y-156906846D01*
X127500000Y-159396899D02*
X127599496Y-159386871D01*
X127599504Y-156906846D02*
X127697517Y-156926681D01*
X127599496Y-159386871D02*
X127697493Y-159366956D01*
X127697517Y-156926681D02*
X127793059Y-156956206D01*
X127697493Y-159366956D02*
X127793011Y-159337353D01*
X127793059Y-156956206D02*
X127885174Y-156995126D01*
X127793011Y-159337353D02*
X127885095Y-159298358D01*
X127885174Y-156995126D02*
X127972941Y-157043051D01*
X127885095Y-159298358D02*
X127972824Y-159250361D01*
X127972941Y-157043051D02*
X128055483Y-157099502D01*
X127972824Y-159250361D02*
X128055321Y-159193842D01*
X128055483Y-157099502D02*
X128131974Y-157163915D01*
X128055321Y-159193842D02*
X128131761Y-159129366D01*
X128131974Y-157163915D02*
X128201649Y-157235645D01*
X128131761Y-159129366D02*
X128201379Y-159057578D01*
X128201649Y-157235645D02*
X128263812Y-157313975D01*
X128201379Y-159057578D02*
X128263479Y-158979196D01*
X128263812Y-157313975D02*
X128317841Y-157398122D01*
X128263479Y-158979196D02*
X128317440Y-158895004D01*
X128317841Y-157398122D02*
X128363196Y-157487244D01*
X128317440Y-158895004D02*
X128362723Y-158805844D01*
X128363196Y-157487244D02*
X128399423Y-157580450D01*
X128362723Y-158805844D02*
X128398875Y-158712607D01*
X128399423Y-157580450D02*
X128426160Y-157676808D01*
X128398875Y-158712607D02*
X128425534Y-158616226D01*
X128426160Y-157676808D02*
X128443140Y-157775355D01*
X128425534Y-158616226D02*
X128442434Y-158517664D01*
X128443140Y-157775355D02*
X128450193Y-157875105D01*
X128442434Y-158517664D02*
X128449406Y-158417907D01*
X128450193Y-157875105D02*
X128449406Y-158417907D01*
X132499998Y-159394833D02*
X132400494Y-159384886D01*
X132499998Y-156894833D02*
X132400502Y-156904861D01*
X132400494Y-159384886D02*
X132302481Y-159365051D01*
X132400502Y-156904861D02*
X132302505Y-156924776D01*
X132302481Y-159365051D02*
X132206939Y-159335526D01*
X132302505Y-156924776D02*
X132206987Y-156954379D01*
X132206939Y-159335526D02*
X132114824Y-159296606D01*
X132206987Y-156954379D02*
X132114903Y-156993374D01*
X132114824Y-159296606D02*
X132027057Y-159248681D01*
X132114903Y-156993374D02*
X132027174Y-157041371D01*
X132027057Y-159248681D02*
X131944515Y-159192230D01*
X132027174Y-157041371D02*
X131944677Y-157097890D01*
X131944515Y-159192230D02*
X131868024Y-159127817D01*
X131944677Y-157097890D02*
X131868237Y-157162366D01*
X131868024Y-159127817D02*
X131798349Y-159056087D01*
X131868237Y-157162366D02*
X131798619Y-157234154D01*
X131798349Y-159056087D02*
X131736186Y-158977757D01*
X131798619Y-157234154D02*
X131736519Y-157312536D01*
X131736186Y-158977757D02*
X131682157Y-158893610D01*
X131736519Y-157312536D02*
X131682558Y-157396728D01*
X131682157Y-158893610D02*
X131636802Y-158804488D01*
X131682558Y-157396728D02*
X131637275Y-157485888D01*
X131636802Y-158804488D02*
X131600575Y-158711282D01*
X131637275Y-157485888D02*
X131601123Y-157579125D01*
X131600575Y-158711282D02*
X131573838Y-158614924D01*
X131601123Y-157579125D02*
X131574464Y-157675506D01*
X131573838Y-158614924D02*
X131556858Y-158516377D01*
X131574464Y-157675506D02*
X131557564Y-157774068D01*
X131556858Y-158516377D02*
X131549805Y-158416627D01*
X131557564Y-157774068D02*
X131550592Y-157873825D01*
X131550592Y-157873825D02*
X131549805Y-158416627D01*
X127500000Y-131396899D02*
X120000000Y-131400000D01*
X132499998Y-131394833D02*
X143000001Y-131390491D01*
X132499998Y-133894833D02*
X143000001Y-133890491D01*
X127500000Y-133896899D02*
X120000000Y-133900000D01*
X127500000Y-131396899D02*
X127599504Y-131406846D01*
X127500000Y-133896899D02*
X127599496Y-133886871D01*
X127599504Y-131406846D02*
X127697517Y-131426681D01*
X127599496Y-133886871D02*
X127697493Y-133866956D01*
X127697517Y-131426681D02*
X127793059Y-131456206D01*
X127697493Y-133866956D02*
X127793011Y-133837353D01*
X127793059Y-131456206D02*
X127885174Y-131495126D01*
X127793011Y-133837353D02*
X127885095Y-133798358D01*
X127885174Y-131495126D02*
X127972941Y-131543051D01*
X127885095Y-133798358D02*
X127972824Y-133750361D01*
X127972941Y-131543051D02*
X128055483Y-131599502D01*
X127972824Y-133750361D02*
X128055321Y-133693842D01*
X128055483Y-131599502D02*
X128131974Y-131663915D01*
X128055321Y-133693842D02*
X128131761Y-133629366D01*
X128131974Y-131663915D02*
X128201649Y-131735645D01*
X128131761Y-133629366D02*
X128201379Y-133557578D01*
X128201649Y-131735645D02*
X128263812Y-131813975D01*
X128201379Y-133557578D02*
X128263479Y-133479196D01*
X128263812Y-131813975D02*
X128317841Y-131898122D01*
X128263479Y-133479196D02*
X128317440Y-133395004D01*
X128317841Y-131898122D02*
X128363196Y-131987244D01*
X128317440Y-133395004D02*
X128362723Y-133305844D01*
X128363196Y-131987244D02*
X128399423Y-132080450D01*
X128362723Y-133305844D02*
X128398875Y-133212607D01*
X128399423Y-132080450D02*
X128426160Y-132176808D01*
X128398875Y-133212607D02*
X128425534Y-133116226D01*
X128426160Y-132176808D02*
X128443140Y-132275355D01*
X128425534Y-133116226D02*
X128442434Y-133017664D01*
X128443140Y-132275355D02*
X128450193Y-132375105D01*
X128442434Y-133017664D02*
X128449406Y-132917907D01*
X128450193Y-132375105D02*
X128449406Y-132917907D01*
X132499998Y-133894833D02*
X132400494Y-133884886D01*
X132499998Y-131394833D02*
X132400502Y-131404861D01*
X132400494Y-133884886D02*
X132302481Y-133865051D01*
X132400502Y-131404861D02*
X132302505Y-131424776D01*
X132302481Y-133865051D02*
X132206939Y-133835526D01*
X132302505Y-131424776D02*
X132206987Y-131454379D01*
X132206939Y-133835526D02*
X132114824Y-133796606D01*
X132206987Y-131454379D02*
X132114903Y-131493374D01*
X132114824Y-133796606D02*
X132027057Y-133748681D01*
X132114903Y-131493374D02*
X132027174Y-131541371D01*
X132027057Y-133748681D02*
X131944515Y-133692230D01*
X132027174Y-131541371D02*
X131944677Y-131597890D01*
X131944515Y-133692230D02*
X131868024Y-133627817D01*
X131944677Y-131597890D02*
X131868237Y-131662366D01*
X131868024Y-133627817D02*
X131798349Y-133556087D01*
X131868237Y-131662366D02*
X131798619Y-131734154D01*
X131798349Y-133556087D02*
X131736186Y-133477757D01*
X131798619Y-131734154D02*
X131736519Y-131812536D01*
X131736186Y-133477757D02*
X131682157Y-133393610D01*
X131736519Y-131812536D02*
X131682558Y-131896728D01*
X131682157Y-133393610D02*
X131636802Y-133304488D01*
X131682558Y-131896728D02*
X131637275Y-131985888D01*
X131636802Y-133304488D02*
X131600575Y-133211282D01*
X131637275Y-131985888D02*
X131601123Y-132079125D01*
X131600575Y-133211282D02*
X131573838Y-133114924D01*
X131601123Y-132079125D02*
X131574464Y-132175506D01*
X131573838Y-133114924D02*
X131556858Y-133016377D01*
X131574464Y-132175506D02*
X131557564Y-132274068D01*
X131556858Y-133016377D02*
X131549805Y-132916627D01*
X131557564Y-132274068D02*
X131550592Y-132373825D01*
X131550592Y-132373825D02*
X131549805Y-132916627D01*
X127500000Y-105896899D02*
X120000000Y-105900000D01*
X132499998Y-105894833D02*
X143000001Y-105890491D01*
X132499998Y-108394833D02*
X143000001Y-108390491D01*
X127500000Y-108396899D02*
X120000000Y-108400000D01*
X127500000Y-105896899D02*
X127599504Y-105906846D01*
X127500000Y-108396899D02*
X127599496Y-108386871D01*
X127599504Y-105906846D02*
X127697517Y-105926681D01*
X127599496Y-108386871D02*
X127697493Y-108366956D01*
X127697517Y-105926681D02*
X127793059Y-105956206D01*
X127697493Y-108366956D02*
X127793011Y-108337353D01*
X127793059Y-105956206D02*
X127885174Y-105995126D01*
X127793011Y-108337353D02*
X127885095Y-108298358D01*
X127885174Y-105995126D02*
X127972941Y-106043051D01*
X127885095Y-108298358D02*
X127972824Y-108250361D01*
X127972941Y-106043051D02*
X128055483Y-106099502D01*
X127972824Y-108250361D02*
X128055321Y-108193842D01*
X128055483Y-106099502D02*
X128131974Y-106163915D01*
X128055321Y-108193842D02*
X128131761Y-108129366D01*
X128131974Y-106163915D02*
X128201649Y-106235645D01*
X128131761Y-108129366D02*
X128201379Y-108057578D01*
X128201649Y-106235645D02*
X128263812Y-106313975D01*
X128201379Y-108057578D02*
X128263479Y-107979196D01*
X128263812Y-106313975D02*
X128317841Y-106398122D01*
X128263479Y-107979196D02*
X128317440Y-107895004D01*
X128317841Y-106398122D02*
X128363196Y-106487244D01*
X128317440Y-107895004D02*
X128362723Y-107805844D01*
X128363196Y-106487244D02*
X128399423Y-106580450D01*
X128362723Y-107805844D02*
X128398875Y-107712607D01*
X128399423Y-106580450D02*
X128426160Y-106676808D01*
X128398875Y-107712607D02*
X128425534Y-107616226D01*
X128426160Y-106676808D02*
X128443140Y-106775355D01*
X128425534Y-107616226D02*
X128442434Y-107517664D01*
X128443140Y-106775355D02*
X128450193Y-106875105D01*
X128442434Y-107517664D02*
X128449406Y-107417907D01*
X128450193Y-106875105D02*
X128449406Y-107417907D01*
X132499998Y-108394833D02*
X132400494Y-108384886D01*
X132499998Y-105894833D02*
X132400502Y-105904861D01*
X132400494Y-108384886D02*
X132302481Y-108365051D01*
X132400502Y-105904861D02*
X132302505Y-105924776D01*
X132302481Y-108365051D02*
X132206939Y-108335526D01*
X132302505Y-105924776D02*
X132206987Y-105954379D01*
X132206939Y-108335526D02*
X132114824Y-108296606D01*
X132206987Y-105954379D02*
X132114903Y-105993374D01*
X132114824Y-108296606D02*
X132027057Y-108248681D01*
X132114903Y-105993374D02*
X132027174Y-106041371D01*
X132027057Y-108248681D02*
X131944515Y-108192230D01*
X132027174Y-106041371D02*
X131944677Y-106097890D01*
X131944515Y-108192230D02*
X131868024Y-108127817D01*
X131944677Y-106097890D02*
X131868237Y-106162366D01*
X131868024Y-108127817D02*
X131798349Y-108056087D01*
X131868237Y-106162366D02*
X131798619Y-106234154D01*
X131798349Y-108056087D02*
X131736186Y-107977757D01*
X131798619Y-106234154D02*
X131736519Y-106312536D01*
X131736186Y-107977757D02*
X131682157Y-107893610D01*
X131736519Y-106312536D02*
X131682558Y-106396728D01*
X131682157Y-107893610D02*
X131636802Y-107804488D01*
X131682558Y-106396728D02*
X131637275Y-106485888D01*
X131636802Y-107804488D02*
X131600575Y-107711282D01*
X131637275Y-106485888D02*
X131601123Y-106579125D01*
X131600575Y-107711282D02*
X131573838Y-107614924D01*
X131601123Y-106579125D02*
X131574464Y-106675506D01*
X131573838Y-107614924D02*
X131556858Y-107516377D01*
X131574464Y-106675506D02*
X131557564Y-106774068D01*
X131556858Y-107516377D02*
X131549805Y-107416627D01*
X131557564Y-106774068D02*
X131550592Y-106873825D01*
X131550592Y-106873825D02*
X131549805Y-107416627D01*
M02*
