G04 #@! TF.GenerationSoftware,KiCad,Pcbnew,5.1.6-c6e7f7d~86~ubuntu16.04.1*
G04 #@! TF.CreationDate,2020-05-16T13:50:45+09:00*
G04 #@! TF.ProjectId,output.usb_breakout_array,6f757470-7574-42e7-9573-625f62726561,rev?*
G04 #@! TF.SameCoordinates,Original*
G04 #@! TF.FileFunction,Copper,L1,Top*
G04 #@! TF.FilePolarity,Positive*
%FSLAX46Y46*%
G04 Gerber Fmt 4.6, Leading zero omitted, Abs format (unit mm)*
G04 Created by KiCad (PCBNEW 5.1.6-c6e7f7d~86~ubuntu16.04.1) date 2020-05-16 13:50:45*
%MOMM*%
%LPD*%
G01*
G04 APERTURE LIST*
G04 #@! TA.AperFunction,NonConductor*
%ADD10C,0.100000*%
G04 #@! TD*
G04 #@! TA.AperFunction,ConnectorPad*
%ADD11R,2.880000X1.120000*%
G04 #@! TD*
G04 #@! TA.AperFunction,ComponentPad*
%ADD12C,2.800000*%
G04 #@! TD*
G04 #@! TA.AperFunction,ConnectorPad*
%ADD13R,2.000000X1.200000*%
G04 #@! TD*
G04 #@! TA.AperFunction,ComponentPad*
%ADD14O,3.200000X1.300000*%
G04 #@! TD*
G04 #@! TA.AperFunction,ComponentPad*
%ADD15R,1.700000X1.700000*%
G04 #@! TD*
G04 #@! TA.AperFunction,ComponentPad*
%ADD16O,1.700000X1.700000*%
G04 #@! TD*
G04 #@! TA.AperFunction,Conductor*
%ADD17C,0.270000*%
G04 #@! TD*
G04 #@! TA.AperFunction,Conductor*
%ADD18C,0.250000*%
G04 #@! TD*
G04 #@! TA.AperFunction,Conductor*
%ADD19C,2.000000*%
G04 #@! TD*
G04 #@! TA.AperFunction,Conductor*
%ADD20C,1.500000*%
G04 #@! TD*
G04 APERTURE END LIST*
D10*
G36*
X174000000Y-172000000D02*
G01*
X172000000Y-172000000D01*
X172000000Y-171000000D01*
X174000000Y-171000000D01*
X174000000Y-172000000D01*
G37*
X174000000Y-172000000D02*
X172000000Y-172000000D01*
X172000000Y-171000000D01*
X174000000Y-171000000D01*
X174000000Y-172000000D01*
G36*
X174000000Y-146500000D02*
G01*
X172000000Y-146500000D01*
X172000000Y-145500000D01*
X174000000Y-145500000D01*
X174000000Y-146500000D01*
G37*
X174000000Y-146500000D02*
X172000000Y-146500000D01*
X172000000Y-145500000D01*
X174000000Y-145500000D01*
X174000000Y-146500000D01*
G36*
X174000000Y-121000000D02*
G01*
X172000000Y-121000000D01*
X172000000Y-120000000D01*
X174000000Y-120000000D01*
X174000000Y-121000000D01*
G37*
X174000000Y-121000000D02*
X172000000Y-121000000D01*
X172000000Y-120000000D01*
X174000000Y-120000000D01*
X174000000Y-121000000D01*
G36*
X127500000Y-170000000D02*
G01*
X125500000Y-170000000D01*
X125500000Y-169000000D01*
X127500000Y-169000000D01*
X127500000Y-170000000D01*
G37*
X127500000Y-170000000D02*
X125500000Y-170000000D01*
X125500000Y-169000000D01*
X127500000Y-169000000D01*
X127500000Y-170000000D01*
G36*
X127500000Y-144500000D02*
G01*
X125500000Y-144500000D01*
X125500000Y-143500000D01*
X127500000Y-143500000D01*
X127500000Y-144500000D01*
G37*
X127500000Y-144500000D02*
X125500000Y-144500000D01*
X125500000Y-143500000D01*
X127500000Y-143500000D01*
X127500000Y-144500000D01*
G36*
X127500000Y-119000000D02*
G01*
X125500000Y-119000000D01*
X125500000Y-118000000D01*
X127500000Y-118000000D01*
X127500000Y-119000000D01*
G37*
X127500000Y-119000000D02*
X125500000Y-119000000D01*
X125500000Y-118000000D01*
X127500000Y-118000000D01*
X127500000Y-119000000D01*
G36*
X127500000Y-172000000D02*
G01*
X125500000Y-172000000D01*
X125500000Y-171000000D01*
X127500000Y-171000000D01*
X127500000Y-172000000D01*
G37*
X127500000Y-172000000D02*
X125500000Y-172000000D01*
X125500000Y-171000000D01*
X127500000Y-171000000D01*
X127500000Y-172000000D01*
G36*
X127500000Y-146500000D02*
G01*
X125500000Y-146500000D01*
X125500000Y-145500000D01*
X127500000Y-145500000D01*
X127500000Y-146500000D01*
G37*
X127500000Y-146500000D02*
X125500000Y-146500000D01*
X125500000Y-145500000D01*
X127500000Y-145500000D01*
X127500000Y-146500000D01*
G36*
X127500000Y-121000000D02*
G01*
X125500000Y-121000000D01*
X125500000Y-120000000D01*
X127500000Y-120000000D01*
X127500000Y-121000000D01*
G37*
X127500000Y-121000000D02*
X125500000Y-121000000D01*
X125500000Y-120000000D01*
X127500000Y-120000000D01*
X127500000Y-121000000D01*
G36*
X174000000Y-170000000D02*
G01*
X172000000Y-170000000D01*
X172000000Y-169000000D01*
X174000000Y-169000000D01*
X174000000Y-170000000D01*
G37*
X174000000Y-170000000D02*
X172000000Y-170000000D01*
X172000000Y-169000000D01*
X174000000Y-169000000D01*
X174000000Y-170000000D01*
G36*
X174000000Y-144500000D02*
G01*
X172000000Y-144500000D01*
X172000000Y-143500000D01*
X174000000Y-143500000D01*
X174000000Y-144500000D01*
G37*
X174000000Y-144500000D02*
X172000000Y-144500000D01*
X172000000Y-143500000D01*
X174000000Y-143500000D01*
X174000000Y-144500000D01*
G36*
X174000000Y-119000000D02*
G01*
X172000000Y-119000000D01*
X172000000Y-118000000D01*
X174000000Y-118000000D01*
X174000000Y-119000000D01*
G37*
X174000000Y-119000000D02*
X172000000Y-119000000D01*
X172000000Y-118000000D01*
X174000000Y-118000000D01*
X174000000Y-119000000D01*
G36*
X127500000Y-93500000D02*
G01*
X125500000Y-93500000D01*
X125500000Y-92500000D01*
X127500000Y-92500000D01*
X127500000Y-93500000D01*
G37*
X127500000Y-93500000D02*
X125500000Y-93500000D01*
X125500000Y-92500000D01*
X127500000Y-92500000D01*
X127500000Y-93500000D01*
G36*
X127500000Y-95500000D02*
G01*
X125500000Y-95500000D01*
X125500000Y-94500000D01*
X127500000Y-94500000D01*
X127500000Y-95500000D01*
G37*
X127500000Y-95500000D02*
X125500000Y-95500000D01*
X125500000Y-94500000D01*
X127500000Y-94500000D01*
X127500000Y-95500000D01*
G36*
X174000000Y-95500000D02*
G01*
X172000000Y-95500000D01*
X172000000Y-94500000D01*
X174000000Y-94500000D01*
X174000000Y-95500000D01*
G37*
X174000000Y-95500000D02*
X172000000Y-95500000D01*
X172000000Y-94500000D01*
X174000000Y-94500000D01*
X174000000Y-95500000D01*
G36*
X174000000Y-93500000D02*
G01*
X172000000Y-93500000D01*
X172000000Y-92500000D01*
X174000000Y-92500000D01*
X174000000Y-93500000D01*
G37*
X174000000Y-93500000D02*
X172000000Y-93500000D01*
X172000000Y-92500000D01*
X174000000Y-92500000D01*
X174000000Y-93500000D01*
D11*
X179420000Y-174000000D03*
X179420000Y-171500000D03*
X179420000Y-169500000D03*
X179420000Y-167000000D03*
D12*
X183000000Y-177070000D03*
X183000000Y-163930000D03*
D11*
X179420000Y-148500000D03*
X179420000Y-146000000D03*
X179420000Y-144000000D03*
X179420000Y-141500000D03*
D12*
X183000000Y-151570000D03*
X183000000Y-138430000D03*
D11*
X179420000Y-123000000D03*
X179420000Y-120500000D03*
X179420000Y-118500000D03*
X179420000Y-116000000D03*
D12*
X183000000Y-126070000D03*
X183000000Y-112930000D03*
D13*
X120600000Y-174000000D03*
X120600000Y-171500000D03*
X120600000Y-169500000D03*
X120600000Y-167000000D03*
D14*
X118000000Y-176350000D03*
X118000000Y-164650000D03*
D13*
X120600000Y-148500000D03*
X120600000Y-146000000D03*
X120600000Y-144000000D03*
X120600000Y-141500000D03*
D14*
X118000000Y-150850000D03*
X118000000Y-139150000D03*
D13*
X120600000Y-123000000D03*
X120600000Y-120500000D03*
X120600000Y-118500000D03*
X120600000Y-116000000D03*
D14*
X118000000Y-125350000D03*
X118000000Y-113650000D03*
D15*
X174500000Y-174500000D03*
D16*
X174500000Y-171960000D03*
X174500000Y-169420000D03*
X174500000Y-166880000D03*
D15*
X174500000Y-149000000D03*
D16*
X174500000Y-146460000D03*
X174500000Y-143920000D03*
X174500000Y-141380000D03*
D15*
X174500000Y-123500000D03*
D16*
X174500000Y-120960000D03*
X174500000Y-118420000D03*
X174500000Y-115880000D03*
D15*
X174460000Y-178000000D03*
D16*
X177000000Y-178000000D03*
X174460000Y-180540000D03*
X177000000Y-180540000D03*
D15*
X174460000Y-152500000D03*
D16*
X177000000Y-152500000D03*
X174460000Y-155040000D03*
X177000000Y-155040000D03*
D15*
X174460000Y-127000000D03*
D16*
X177000000Y-127000000D03*
X174460000Y-129540000D03*
X177000000Y-129540000D03*
D15*
X122500000Y-178000000D03*
D16*
X125040000Y-178000000D03*
X122500000Y-180540000D03*
X125040000Y-180540000D03*
D15*
X122500000Y-152500000D03*
D16*
X125040000Y-152500000D03*
X122500000Y-155040000D03*
X125040000Y-155040000D03*
D15*
X122500000Y-127000000D03*
D16*
X125040000Y-127000000D03*
X122500000Y-129540000D03*
X125040000Y-129540000D03*
D15*
X125000000Y-174500000D03*
D16*
X125000000Y-171960000D03*
X125000000Y-169420000D03*
X125000000Y-166880000D03*
D15*
X125000000Y-149000000D03*
D16*
X125000000Y-146460000D03*
X125000000Y-143920000D03*
X125000000Y-141380000D03*
D15*
X125000000Y-123500000D03*
D16*
X125000000Y-120960000D03*
X125000000Y-118420000D03*
X125000000Y-115880000D03*
X177000000Y-104040000D03*
X174460000Y-104040000D03*
X177000000Y-101500000D03*
D15*
X174460000Y-101500000D03*
D16*
X125040000Y-104040000D03*
X122500000Y-104040000D03*
X125040000Y-101500000D03*
D15*
X122500000Y-101500000D03*
D12*
X183000000Y-87430000D03*
X183000000Y-100570000D03*
D11*
X179420000Y-90500000D03*
X179420000Y-93000000D03*
X179420000Y-95000000D03*
X179420000Y-97500000D03*
D16*
X174500000Y-90380000D03*
X174500000Y-92920000D03*
X174500000Y-95460000D03*
D15*
X174500000Y-98000000D03*
D16*
X125000000Y-90380000D03*
X125000000Y-92920000D03*
X125000000Y-95460000D03*
D15*
X125000000Y-98000000D03*
D14*
X118000000Y-88150000D03*
X118000000Y-99850000D03*
D13*
X120600000Y-90500000D03*
X120600000Y-93000000D03*
X120600000Y-95000000D03*
X120600000Y-97500000D03*
D17*
X177259999Y-93000000D02*
X179420000Y-93000000D01*
X122100001Y-93000000D02*
X122585001Y-93485000D01*
X120600000Y-93000000D02*
X122100001Y-93000000D01*
X176774999Y-93485000D02*
X177259999Y-93000000D01*
D18*
X125000000Y-92920000D02*
X125000000Y-93470000D01*
X125000000Y-93470000D02*
X124985000Y-93485000D01*
D17*
X122585001Y-93485000D02*
X124985000Y-93485000D01*
D18*
X174500000Y-93470000D02*
X174515000Y-93485000D01*
X174500000Y-92920000D02*
X174500000Y-93470000D01*
D17*
X174515000Y-93485000D02*
X176774999Y-93485000D01*
X124985000Y-93485000D02*
X174515000Y-93485000D01*
X122100001Y-118500000D02*
X122585001Y-118985000D01*
X122100001Y-144000000D02*
X122585001Y-144485000D01*
X122100001Y-169500000D02*
X122585001Y-169985000D01*
X174515000Y-118985000D02*
X176774999Y-118985000D01*
X174515000Y-144485000D02*
X176774999Y-144485000D01*
X174515000Y-169985000D02*
X176774999Y-169985000D01*
D18*
X125000000Y-118420000D02*
X125000000Y-118970000D01*
X125000000Y-143920000D02*
X125000000Y-144470000D01*
X125000000Y-169420000D02*
X125000000Y-169970000D01*
D17*
X122585001Y-118985000D02*
X124985000Y-118985000D01*
X122585001Y-144485000D02*
X124985000Y-144485000D01*
X122585001Y-169985000D02*
X124985000Y-169985000D01*
X177259999Y-118500000D02*
X179420000Y-118500000D01*
X177259999Y-144000000D02*
X179420000Y-144000000D01*
X177259999Y-169500000D02*
X179420000Y-169500000D01*
D18*
X125000000Y-118970000D02*
X124985000Y-118985000D01*
X125000000Y-144470000D02*
X124985000Y-144485000D01*
X125000000Y-169970000D02*
X124985000Y-169985000D01*
X174500000Y-118420000D02*
X174500000Y-118970000D01*
X174500000Y-143920000D02*
X174500000Y-144470000D01*
X174500000Y-169420000D02*
X174500000Y-169970000D01*
D17*
X176774999Y-118985000D02*
X177259999Y-118500000D01*
X176774999Y-144485000D02*
X177259999Y-144000000D01*
X176774999Y-169985000D02*
X177259999Y-169500000D01*
X120600000Y-118500000D02*
X122100001Y-118500000D01*
X120600000Y-144000000D02*
X122100001Y-144000000D01*
X120600000Y-169500000D02*
X122100001Y-169500000D01*
X124985000Y-118985000D02*
X174515000Y-118985000D01*
X124985000Y-144485000D02*
X174515000Y-144485000D01*
X124985000Y-169985000D02*
X174515000Y-169985000D01*
D18*
X174500000Y-118970000D02*
X174515000Y-118985000D01*
X174500000Y-144470000D02*
X174515000Y-144485000D01*
X174500000Y-169970000D02*
X174515000Y-169985000D01*
D17*
X176774999Y-94515000D02*
X177259999Y-95000000D01*
X177259999Y-95000000D02*
X179420000Y-95000000D01*
X122100001Y-95000000D02*
X122585001Y-94515000D01*
X120600000Y-95000000D02*
X122100001Y-95000000D01*
D18*
X125000000Y-94530000D02*
X125015000Y-94515000D01*
X125000000Y-95460000D02*
X125000000Y-94530000D01*
D17*
X122585001Y-94515000D02*
X125015000Y-94515000D01*
D18*
X174500000Y-94530000D02*
X174515000Y-94515000D01*
X174500000Y-95460000D02*
X174500000Y-94530000D01*
D17*
X174515000Y-94515000D02*
X176774999Y-94515000D01*
X125015000Y-94515000D02*
X174515000Y-94515000D01*
D18*
X125000000Y-120960000D02*
X125000000Y-120030000D01*
X125000000Y-146460000D02*
X125000000Y-145530000D01*
X125000000Y-171960000D02*
X125000000Y-171030000D01*
X174500000Y-120030000D02*
X174515000Y-120015000D01*
X174500000Y-145530000D02*
X174515000Y-145515000D01*
X174500000Y-171030000D02*
X174515000Y-171015000D01*
X174500000Y-120960000D02*
X174500000Y-120030000D01*
X174500000Y-146460000D02*
X174500000Y-145530000D01*
X174500000Y-171960000D02*
X174500000Y-171030000D01*
D17*
X125015000Y-120015000D02*
X174515000Y-120015000D01*
X125015000Y-145515000D02*
X174515000Y-145515000D01*
X125015000Y-171015000D02*
X174515000Y-171015000D01*
D18*
X125000000Y-120030000D02*
X125015000Y-120015000D01*
X125000000Y-145530000D02*
X125015000Y-145515000D01*
X125000000Y-171030000D02*
X125015000Y-171015000D01*
D17*
X174515000Y-120015000D02*
X176774999Y-120015000D01*
X174515000Y-145515000D02*
X176774999Y-145515000D01*
X174515000Y-171015000D02*
X176774999Y-171015000D01*
X122100001Y-120500000D02*
X122585001Y-120015000D01*
X122100001Y-146000000D02*
X122585001Y-145515000D01*
X122100001Y-171500000D02*
X122585001Y-171015000D01*
X176774999Y-120015000D02*
X177259999Y-120500000D01*
X176774999Y-145515000D02*
X177259999Y-146000000D01*
X176774999Y-171015000D02*
X177259999Y-171500000D01*
X177259999Y-120500000D02*
X179420000Y-120500000D01*
X177259999Y-146000000D02*
X179420000Y-146000000D01*
X177259999Y-171500000D02*
X179420000Y-171500000D01*
X122585001Y-120015000D02*
X125015000Y-120015000D01*
X122585001Y-145515000D02*
X125015000Y-145515000D01*
X122585001Y-171015000D02*
X125015000Y-171015000D01*
X120600000Y-120500000D02*
X122100001Y-120500000D01*
X120600000Y-146000000D02*
X122100001Y-146000000D01*
X120600000Y-171500000D02*
X122100001Y-171500000D01*
D19*
X124880000Y-90500000D02*
X125000000Y-90380000D01*
X120600000Y-90500000D02*
X124880000Y-90500000D01*
D20*
X179300000Y-90380000D02*
X179420000Y-90500000D01*
X174500000Y-90380000D02*
X179300000Y-90380000D01*
D19*
X125000000Y-90380000D02*
X135120000Y-90380000D01*
X135120000Y-90380000D02*
X135740000Y-91000000D01*
X164620000Y-90380000D02*
X174500000Y-90380000D01*
X135740000Y-91000000D02*
X164000000Y-91000000D01*
X164000000Y-91000000D02*
X164620000Y-90380000D01*
X124880000Y-116000000D02*
X125000000Y-115880000D01*
X124880000Y-141500000D02*
X125000000Y-141380000D01*
X124880000Y-167000000D02*
X125000000Y-166880000D01*
X164000000Y-116500000D02*
X164620000Y-115880000D01*
X164000000Y-142000000D02*
X164620000Y-141380000D01*
X164000000Y-167500000D02*
X164620000Y-166880000D01*
X164620000Y-115880000D02*
X174500000Y-115880000D01*
X164620000Y-141380000D02*
X174500000Y-141380000D01*
X164620000Y-166880000D02*
X174500000Y-166880000D01*
X125000000Y-115880000D02*
X135120000Y-115880000D01*
X125000000Y-141380000D02*
X135120000Y-141380000D01*
X125000000Y-166880000D02*
X135120000Y-166880000D01*
X120600000Y-116000000D02*
X124880000Y-116000000D01*
X120600000Y-141500000D02*
X124880000Y-141500000D01*
X120600000Y-167000000D02*
X124880000Y-167000000D01*
X135740000Y-116500000D02*
X164000000Y-116500000D01*
X135740000Y-142000000D02*
X164000000Y-142000000D01*
X135740000Y-167500000D02*
X164000000Y-167500000D01*
D20*
X174500000Y-115880000D02*
X179300000Y-115880000D01*
X174500000Y-141380000D02*
X179300000Y-141380000D01*
X174500000Y-166880000D02*
X179300000Y-166880000D01*
D19*
X135120000Y-115880000D02*
X135740000Y-116500000D01*
X135120000Y-141380000D02*
X135740000Y-142000000D01*
X135120000Y-166880000D02*
X135740000Y-167500000D01*
D20*
X179300000Y-115880000D02*
X179420000Y-116000000D01*
X179300000Y-141380000D02*
X179420000Y-141500000D01*
X179300000Y-166880000D02*
X179420000Y-167000000D01*
D19*
X125000000Y-98000000D02*
X174500000Y-98000000D01*
X177000000Y-101500000D02*
X177000000Y-104040000D01*
X174460000Y-98040000D02*
X174500000Y-98000000D01*
X174460000Y-104040000D02*
X174460000Y-98040000D01*
X125040000Y-98040000D02*
X125000000Y-98000000D01*
X125040000Y-104040000D02*
X125040000Y-98040000D01*
X122500000Y-99400000D02*
X122500000Y-104040000D01*
X120600000Y-97500000D02*
X122500000Y-99400000D01*
X179420000Y-97500000D02*
X178500000Y-97500000D01*
X177000000Y-99000000D02*
X177000000Y-104040000D01*
X178500000Y-97500000D02*
X177000000Y-99000000D01*
X177000000Y-124500000D02*
X177000000Y-129540000D01*
X177000000Y-150000000D02*
X177000000Y-155040000D01*
X177000000Y-175500000D02*
X177000000Y-180540000D01*
X178500000Y-123000000D02*
X177000000Y-124500000D01*
X178500000Y-148500000D02*
X177000000Y-150000000D01*
X178500000Y-174000000D02*
X177000000Y-175500000D01*
X122500000Y-124900000D02*
X122500000Y-129540000D01*
X122500000Y-150400000D02*
X122500000Y-155040000D01*
X122500000Y-175900000D02*
X122500000Y-180540000D01*
X174460000Y-129540000D02*
X174460000Y-123540000D01*
X174460000Y-155040000D02*
X174460000Y-149040000D01*
X174460000Y-180540000D02*
X174460000Y-174540000D01*
X125040000Y-123540000D02*
X125000000Y-123500000D01*
X125040000Y-149040000D02*
X125000000Y-149000000D01*
X125040000Y-174540000D02*
X125000000Y-174500000D01*
X125040000Y-129540000D02*
X125040000Y-123540000D01*
X125040000Y-155040000D02*
X125040000Y-149040000D01*
X125040000Y-180540000D02*
X125040000Y-174540000D01*
X120600000Y-123000000D02*
X122500000Y-124900000D01*
X120600000Y-148500000D02*
X122500000Y-150400000D01*
X120600000Y-174000000D02*
X122500000Y-175900000D01*
X179420000Y-123000000D02*
X178500000Y-123000000D01*
X179420000Y-148500000D02*
X178500000Y-148500000D01*
X179420000Y-174000000D02*
X178500000Y-174000000D01*
X174460000Y-123540000D02*
X174500000Y-123500000D01*
X174460000Y-149040000D02*
X174500000Y-149000000D01*
X174460000Y-174540000D02*
X174500000Y-174500000D01*
X177000000Y-127000000D02*
X177000000Y-129540000D01*
X177000000Y-152500000D02*
X177000000Y-155040000D01*
X177000000Y-178000000D02*
X177000000Y-180540000D01*
X125000000Y-123500000D02*
X174500000Y-123500000D01*
X125000000Y-149000000D02*
X174500000Y-149000000D01*
X125000000Y-174500000D02*
X174500000Y-174500000D01*
M02*
