G04 #@! TF.GenerationSoftware,KiCad,Pcbnew,5.1.6-c6e7f7d~86~ubuntu16.04.1*
G04 #@! TF.CreationDate,2020-05-16T13:50:45+09:00*
G04 #@! TF.ProjectId,output.usb_breakout_array,6f757470-7574-42e7-9573-625f62726561,rev?*
G04 #@! TF.SameCoordinates,Original*
G04 #@! TF.FileFunction,Legend,Top*
G04 #@! TF.FilePolarity,Positive*
%FSLAX46Y46*%
G04 Gerber Fmt 4.6, Leading zero omitted, Abs format (unit mm)*
G04 Created by KiCad (PCBNEW 5.1.6-c6e7f7d~86~ubuntu16.04.1) date 2020-05-16 13:50:45*
%MOMM*%
%LPD*%
G01*
G04 APERTURE LIST*
%ADD10C,0.153000*%
%ADD11C,0.150000*%
G04 APERTURE END LIST*
D10*
X176452380Y-175452380D02*
X177452380Y-175119047D01*
X176452380Y-174785714D01*
X177071428Y-174452380D02*
X177071428Y-173690476D01*
X177452380Y-174071428D02*
X176690476Y-174071428D01*
X176452380Y-149952380D02*
X177452380Y-149619047D01*
X176452380Y-149285714D01*
X177071428Y-148952380D02*
X177071428Y-148190476D01*
X177452380Y-148571428D02*
X176690476Y-148571428D01*
X176452380Y-124452380D02*
X177452380Y-124119047D01*
X176452380Y-123785714D01*
X177071428Y-123452380D02*
X177071428Y-122690476D01*
X177452380Y-123071428D02*
X176690476Y-123071428D01*
X121952380Y-175452380D02*
X122952380Y-175119047D01*
X121952380Y-174785714D01*
X122571428Y-174452380D02*
X122571428Y-173690476D01*
X122952380Y-174071428D02*
X122190476Y-174071428D01*
X121952380Y-149952380D02*
X122952380Y-149619047D01*
X121952380Y-149285714D01*
X122571428Y-148952380D02*
X122571428Y-148190476D01*
X122952380Y-148571428D02*
X122190476Y-148571428D01*
X121952380Y-124452380D02*
X122952380Y-124119047D01*
X121952380Y-123785714D01*
X122571428Y-123452380D02*
X122571428Y-122690476D01*
X122952380Y-123071428D02*
X122190476Y-123071428D01*
X122952380Y-169980952D02*
X121952380Y-169980952D01*
X121952380Y-169742857D01*
X122000000Y-169600000D01*
X122095238Y-169504761D01*
X122190476Y-169457142D01*
X122380952Y-169409523D01*
X122523809Y-169409523D01*
X122714285Y-169457142D01*
X122809523Y-169504761D01*
X122904761Y-169600000D01*
X122952380Y-169742857D01*
X122952380Y-169980952D01*
X122571428Y-168980952D02*
X122571428Y-168219047D01*
X122952380Y-168600000D02*
X122190476Y-168600000D01*
X122952380Y-144480952D02*
X121952380Y-144480952D01*
X121952380Y-144242857D01*
X122000000Y-144100000D01*
X122095238Y-144004761D01*
X122190476Y-143957142D01*
X122380952Y-143909523D01*
X122523809Y-143909523D01*
X122714285Y-143957142D01*
X122809523Y-144004761D01*
X122904761Y-144100000D01*
X122952380Y-144242857D01*
X122952380Y-144480952D01*
X122571428Y-143480952D02*
X122571428Y-142719047D01*
X122952380Y-143100000D02*
X122190476Y-143100000D01*
X122952380Y-118980952D02*
X121952380Y-118980952D01*
X121952380Y-118742857D01*
X122000000Y-118600000D01*
X122095238Y-118504761D01*
X122190476Y-118457142D01*
X122380952Y-118409523D01*
X122523809Y-118409523D01*
X122714285Y-118457142D01*
X122809523Y-118504761D01*
X122904761Y-118600000D01*
X122952380Y-118742857D01*
X122952380Y-118980952D01*
X122571428Y-117980952D02*
X122571428Y-117219047D01*
X122952380Y-117600000D02*
X122190476Y-117600000D01*
X177452380Y-172380952D02*
X176452380Y-172380952D01*
X176452380Y-172142857D01*
X176500000Y-172000000D01*
X176595238Y-171904761D01*
X176690476Y-171857142D01*
X176880952Y-171809523D01*
X177023809Y-171809523D01*
X177214285Y-171857142D01*
X177309523Y-171904761D01*
X177404761Y-172000000D01*
X177452380Y-172142857D01*
X177452380Y-172380952D01*
X177071428Y-171380952D02*
X177071428Y-170619047D01*
X177452380Y-146880952D02*
X176452380Y-146880952D01*
X176452380Y-146642857D01*
X176500000Y-146500000D01*
X176595238Y-146404761D01*
X176690476Y-146357142D01*
X176880952Y-146309523D01*
X177023809Y-146309523D01*
X177214285Y-146357142D01*
X177309523Y-146404761D01*
X177404761Y-146500000D01*
X177452380Y-146642857D01*
X177452380Y-146880952D01*
X177071428Y-145880952D02*
X177071428Y-145119047D01*
X177452380Y-121380952D02*
X176452380Y-121380952D01*
X176452380Y-121142857D01*
X176500000Y-121000000D01*
X176595238Y-120904761D01*
X176690476Y-120857142D01*
X176880952Y-120809523D01*
X177023809Y-120809523D01*
X177214285Y-120857142D01*
X177309523Y-120904761D01*
X177404761Y-121000000D01*
X177452380Y-121142857D01*
X177452380Y-121380952D01*
X177071428Y-120380952D02*
X177071428Y-119619047D01*
X122952380Y-172380952D02*
X121952380Y-172380952D01*
X121952380Y-172142857D01*
X122000000Y-172000000D01*
X122095238Y-171904761D01*
X122190476Y-171857142D01*
X122380952Y-171809523D01*
X122523809Y-171809523D01*
X122714285Y-171857142D01*
X122809523Y-171904761D01*
X122904761Y-172000000D01*
X122952380Y-172142857D01*
X122952380Y-172380952D01*
X122571428Y-171380952D02*
X122571428Y-170619047D01*
X122952380Y-146880952D02*
X121952380Y-146880952D01*
X121952380Y-146642857D01*
X122000000Y-146500000D01*
X122095238Y-146404761D01*
X122190476Y-146357142D01*
X122380952Y-146309523D01*
X122523809Y-146309523D01*
X122714285Y-146357142D01*
X122809523Y-146404761D01*
X122904761Y-146500000D01*
X122952380Y-146642857D01*
X122952380Y-146880952D01*
X122571428Y-145880952D02*
X122571428Y-145119047D01*
X122952380Y-121380952D02*
X121952380Y-121380952D01*
X121952380Y-121142857D01*
X122000000Y-121000000D01*
X122095238Y-120904761D01*
X122190476Y-120857142D01*
X122380952Y-120809523D01*
X122523809Y-120809523D01*
X122714285Y-120857142D01*
X122809523Y-120904761D01*
X122904761Y-121000000D01*
X122952380Y-121142857D01*
X122952380Y-121380952D01*
X122571428Y-120380952D02*
X122571428Y-119619047D01*
X176500000Y-166761904D02*
X176452380Y-166857142D01*
X176452380Y-167000000D01*
X176500000Y-167142857D01*
X176595238Y-167238095D01*
X176690476Y-167285714D01*
X176880952Y-167333333D01*
X177023809Y-167333333D01*
X177214285Y-167285714D01*
X177309523Y-167238095D01*
X177404761Y-167142857D01*
X177452380Y-167000000D01*
X177452380Y-166904761D01*
X177404761Y-166761904D01*
X177357142Y-166714285D01*
X177023809Y-166714285D01*
X177023809Y-166904761D01*
X177452380Y-166285714D02*
X176452380Y-166285714D01*
X177452380Y-165714285D01*
X176452380Y-165714285D01*
X177452380Y-165238095D02*
X176452380Y-165238095D01*
X176452380Y-165000000D01*
X176500000Y-164857142D01*
X176595238Y-164761904D01*
X176690476Y-164714285D01*
X176880952Y-164666666D01*
X177023809Y-164666666D01*
X177214285Y-164714285D01*
X177309523Y-164761904D01*
X177404761Y-164857142D01*
X177452380Y-165000000D01*
X177452380Y-165238095D01*
X176500000Y-141261904D02*
X176452380Y-141357142D01*
X176452380Y-141500000D01*
X176500000Y-141642857D01*
X176595238Y-141738095D01*
X176690476Y-141785714D01*
X176880952Y-141833333D01*
X177023809Y-141833333D01*
X177214285Y-141785714D01*
X177309523Y-141738095D01*
X177404761Y-141642857D01*
X177452380Y-141500000D01*
X177452380Y-141404761D01*
X177404761Y-141261904D01*
X177357142Y-141214285D01*
X177023809Y-141214285D01*
X177023809Y-141404761D01*
X177452380Y-140785714D02*
X176452380Y-140785714D01*
X177452380Y-140214285D01*
X176452380Y-140214285D01*
X177452380Y-139738095D02*
X176452380Y-139738095D01*
X176452380Y-139500000D01*
X176500000Y-139357142D01*
X176595238Y-139261904D01*
X176690476Y-139214285D01*
X176880952Y-139166666D01*
X177023809Y-139166666D01*
X177214285Y-139214285D01*
X177309523Y-139261904D01*
X177404761Y-139357142D01*
X177452380Y-139500000D01*
X177452380Y-139738095D01*
X176500000Y-115761904D02*
X176452380Y-115857142D01*
X176452380Y-116000000D01*
X176500000Y-116142857D01*
X176595238Y-116238095D01*
X176690476Y-116285714D01*
X176880952Y-116333333D01*
X177023809Y-116333333D01*
X177214285Y-116285714D01*
X177309523Y-116238095D01*
X177404761Y-116142857D01*
X177452380Y-116000000D01*
X177452380Y-115904761D01*
X177404761Y-115761904D01*
X177357142Y-115714285D01*
X177023809Y-115714285D01*
X177023809Y-115904761D01*
X177452380Y-115285714D02*
X176452380Y-115285714D01*
X177452380Y-114714285D01*
X176452380Y-114714285D01*
X177452380Y-114238095D02*
X176452380Y-114238095D01*
X176452380Y-114000000D01*
X176500000Y-113857142D01*
X176595238Y-113761904D01*
X176690476Y-113714285D01*
X176880952Y-113666666D01*
X177023809Y-113666666D01*
X177214285Y-113714285D01*
X177309523Y-113761904D01*
X177404761Y-113857142D01*
X177452380Y-114000000D01*
X177452380Y-114238095D01*
X168547619Y-178125880D02*
X168785714Y-179125880D01*
X168976190Y-178411595D01*
X169166666Y-179125880D01*
X169404761Y-178125880D01*
X169785714Y-179125880D02*
X169785714Y-178125880D01*
X170357142Y-179125880D01*
X170357142Y-178125880D01*
X171357142Y-178173500D02*
X171261904Y-178125880D01*
X171119047Y-178125880D01*
X170976190Y-178173500D01*
X170880952Y-178268738D01*
X170833333Y-178363976D01*
X170785714Y-178554452D01*
X170785714Y-178697309D01*
X170833333Y-178887785D01*
X170880952Y-178983023D01*
X170976190Y-179078261D01*
X171119047Y-179125880D01*
X171214285Y-179125880D01*
X171357142Y-179078261D01*
X171404761Y-179030642D01*
X171404761Y-178697309D01*
X171214285Y-178697309D01*
X169452380Y-180778880D02*
X169452380Y-180112214D01*
X169452380Y-180302690D02*
X169500000Y-180207452D01*
X169547619Y-180159833D01*
X169642857Y-180112214D01*
X169738095Y-180112214D01*
X170595238Y-180778880D02*
X170023809Y-180778880D01*
X170309523Y-180778880D02*
X170309523Y-179778880D01*
X170214285Y-179921738D01*
X170119047Y-180016976D01*
X170023809Y-180064595D01*
X168547619Y-152625880D02*
X168785714Y-153625880D01*
X168976190Y-152911595D01*
X169166666Y-153625880D01*
X169404761Y-152625880D01*
X169785714Y-153625880D02*
X169785714Y-152625880D01*
X170357142Y-153625880D01*
X170357142Y-152625880D01*
X171357142Y-152673500D02*
X171261904Y-152625880D01*
X171119047Y-152625880D01*
X170976190Y-152673500D01*
X170880952Y-152768738D01*
X170833333Y-152863976D01*
X170785714Y-153054452D01*
X170785714Y-153197309D01*
X170833333Y-153387785D01*
X170880952Y-153483023D01*
X170976190Y-153578261D01*
X171119047Y-153625880D01*
X171214285Y-153625880D01*
X171357142Y-153578261D01*
X171404761Y-153530642D01*
X171404761Y-153197309D01*
X171214285Y-153197309D01*
X169452380Y-155278880D02*
X169452380Y-154612214D01*
X169452380Y-154802690D02*
X169500000Y-154707452D01*
X169547619Y-154659833D01*
X169642857Y-154612214D01*
X169738095Y-154612214D01*
X170595238Y-155278880D02*
X170023809Y-155278880D01*
X170309523Y-155278880D02*
X170309523Y-154278880D01*
X170214285Y-154421738D01*
X170119047Y-154516976D01*
X170023809Y-154564595D01*
X168547619Y-127125880D02*
X168785714Y-128125880D01*
X168976190Y-127411595D01*
X169166666Y-128125880D01*
X169404761Y-127125880D01*
X169785714Y-128125880D02*
X169785714Y-127125880D01*
X170357142Y-128125880D01*
X170357142Y-127125880D01*
X171357142Y-127173500D02*
X171261904Y-127125880D01*
X171119047Y-127125880D01*
X170976190Y-127173500D01*
X170880952Y-127268738D01*
X170833333Y-127363976D01*
X170785714Y-127554452D01*
X170785714Y-127697309D01*
X170833333Y-127887785D01*
X170880952Y-127983023D01*
X170976190Y-128078261D01*
X171119047Y-128125880D01*
X171214285Y-128125880D01*
X171357142Y-128078261D01*
X171404761Y-128030642D01*
X171404761Y-127697309D01*
X171214285Y-127697309D01*
X169452380Y-129778880D02*
X169452380Y-129112214D01*
X169452380Y-129302690D02*
X169500000Y-129207452D01*
X169547619Y-129159833D01*
X169642857Y-129112214D01*
X169738095Y-129112214D01*
X170595238Y-129778880D02*
X170023809Y-129778880D01*
X170309523Y-129778880D02*
X170309523Y-128778880D01*
X170214285Y-128921738D01*
X170119047Y-129016976D01*
X170023809Y-129064595D01*
X127547619Y-178125880D02*
X127785714Y-179125880D01*
X127976190Y-178411595D01*
X128166666Y-179125880D01*
X128404761Y-178125880D01*
X128785714Y-179125880D02*
X128785714Y-178125880D01*
X129357142Y-179125880D01*
X129357142Y-178125880D01*
X130357142Y-178173500D02*
X130261904Y-178125880D01*
X130119047Y-178125880D01*
X129976190Y-178173500D01*
X129880952Y-178268738D01*
X129833333Y-178363976D01*
X129785714Y-178554452D01*
X129785714Y-178697309D01*
X129833333Y-178887785D01*
X129880952Y-178983023D01*
X129976190Y-179078261D01*
X130119047Y-179125880D01*
X130214285Y-179125880D01*
X130357142Y-179078261D01*
X130404761Y-179030642D01*
X130404761Y-178697309D01*
X130214285Y-178697309D01*
X128452380Y-180778880D02*
X128452380Y-180112214D01*
X128452380Y-180302690D02*
X128500000Y-180207452D01*
X128547619Y-180159833D01*
X128642857Y-180112214D01*
X128738095Y-180112214D01*
X129595238Y-180778880D02*
X129023809Y-180778880D01*
X129309523Y-180778880D02*
X129309523Y-179778880D01*
X129214285Y-179921738D01*
X129119047Y-180016976D01*
X129023809Y-180064595D01*
X127547619Y-152625880D02*
X127785714Y-153625880D01*
X127976190Y-152911595D01*
X128166666Y-153625880D01*
X128404761Y-152625880D01*
X128785714Y-153625880D02*
X128785714Y-152625880D01*
X129357142Y-153625880D01*
X129357142Y-152625880D01*
X130357142Y-152673500D02*
X130261904Y-152625880D01*
X130119047Y-152625880D01*
X129976190Y-152673500D01*
X129880952Y-152768738D01*
X129833333Y-152863976D01*
X129785714Y-153054452D01*
X129785714Y-153197309D01*
X129833333Y-153387785D01*
X129880952Y-153483023D01*
X129976190Y-153578261D01*
X130119047Y-153625880D01*
X130214285Y-153625880D01*
X130357142Y-153578261D01*
X130404761Y-153530642D01*
X130404761Y-153197309D01*
X130214285Y-153197309D01*
X128452380Y-155278880D02*
X128452380Y-154612214D01*
X128452380Y-154802690D02*
X128500000Y-154707452D01*
X128547619Y-154659833D01*
X128642857Y-154612214D01*
X128738095Y-154612214D01*
X129595238Y-155278880D02*
X129023809Y-155278880D01*
X129309523Y-155278880D02*
X129309523Y-154278880D01*
X129214285Y-154421738D01*
X129119047Y-154516976D01*
X129023809Y-154564595D01*
X127547619Y-127125880D02*
X127785714Y-128125880D01*
X127976190Y-127411595D01*
X128166666Y-128125880D01*
X128404761Y-127125880D01*
X128785714Y-128125880D02*
X128785714Y-127125880D01*
X129357142Y-128125880D01*
X129357142Y-127125880D01*
X130357142Y-127173500D02*
X130261904Y-127125880D01*
X130119047Y-127125880D01*
X129976190Y-127173500D01*
X129880952Y-127268738D01*
X129833333Y-127363976D01*
X129785714Y-127554452D01*
X129785714Y-127697309D01*
X129833333Y-127887785D01*
X129880952Y-127983023D01*
X129976190Y-128078261D01*
X130119047Y-128125880D01*
X130214285Y-128125880D01*
X130357142Y-128078261D01*
X130404761Y-128030642D01*
X130404761Y-127697309D01*
X130214285Y-127697309D01*
X128452380Y-129778880D02*
X128452380Y-129112214D01*
X128452380Y-129302690D02*
X128500000Y-129207452D01*
X128547619Y-129159833D01*
X128642857Y-129112214D01*
X128738095Y-129112214D01*
X129595238Y-129778880D02*
X129023809Y-129778880D01*
X129309523Y-129778880D02*
X129309523Y-128778880D01*
X129214285Y-128921738D01*
X129119047Y-129016976D01*
X129023809Y-129064595D01*
X122000000Y-166261904D02*
X121952380Y-166357142D01*
X121952380Y-166500000D01*
X122000000Y-166642857D01*
X122095238Y-166738095D01*
X122190476Y-166785714D01*
X122380952Y-166833333D01*
X122523809Y-166833333D01*
X122714285Y-166785714D01*
X122809523Y-166738095D01*
X122904761Y-166642857D01*
X122952380Y-166500000D01*
X122952380Y-166404761D01*
X122904761Y-166261904D01*
X122857142Y-166214285D01*
X122523809Y-166214285D01*
X122523809Y-166404761D01*
X122952380Y-165785714D02*
X121952380Y-165785714D01*
X122952380Y-165214285D01*
X121952380Y-165214285D01*
X122952380Y-164738095D02*
X121952380Y-164738095D01*
X121952380Y-164500000D01*
X122000000Y-164357142D01*
X122095238Y-164261904D01*
X122190476Y-164214285D01*
X122380952Y-164166666D01*
X122523809Y-164166666D01*
X122714285Y-164214285D01*
X122809523Y-164261904D01*
X122904761Y-164357142D01*
X122952380Y-164500000D01*
X122952380Y-164738095D01*
X122000000Y-140761904D02*
X121952380Y-140857142D01*
X121952380Y-141000000D01*
X122000000Y-141142857D01*
X122095238Y-141238095D01*
X122190476Y-141285714D01*
X122380952Y-141333333D01*
X122523809Y-141333333D01*
X122714285Y-141285714D01*
X122809523Y-141238095D01*
X122904761Y-141142857D01*
X122952380Y-141000000D01*
X122952380Y-140904761D01*
X122904761Y-140761904D01*
X122857142Y-140714285D01*
X122523809Y-140714285D01*
X122523809Y-140904761D01*
X122952380Y-140285714D02*
X121952380Y-140285714D01*
X122952380Y-139714285D01*
X121952380Y-139714285D01*
X122952380Y-139238095D02*
X121952380Y-139238095D01*
X121952380Y-139000000D01*
X122000000Y-138857142D01*
X122095238Y-138761904D01*
X122190476Y-138714285D01*
X122380952Y-138666666D01*
X122523809Y-138666666D01*
X122714285Y-138714285D01*
X122809523Y-138761904D01*
X122904761Y-138857142D01*
X122952380Y-139000000D01*
X122952380Y-139238095D01*
X122000000Y-115261904D02*
X121952380Y-115357142D01*
X121952380Y-115500000D01*
X122000000Y-115642857D01*
X122095238Y-115738095D01*
X122190476Y-115785714D01*
X122380952Y-115833333D01*
X122523809Y-115833333D01*
X122714285Y-115785714D01*
X122809523Y-115738095D01*
X122904761Y-115642857D01*
X122952380Y-115500000D01*
X122952380Y-115404761D01*
X122904761Y-115261904D01*
X122857142Y-115214285D01*
X122523809Y-115214285D01*
X122523809Y-115404761D01*
X122952380Y-114785714D02*
X121952380Y-114785714D01*
X122952380Y-114214285D01*
X121952380Y-114214285D01*
X122952380Y-113738095D02*
X121952380Y-113738095D01*
X121952380Y-113500000D01*
X122000000Y-113357142D01*
X122095238Y-113261904D01*
X122190476Y-113214285D01*
X122380952Y-113166666D01*
X122523809Y-113166666D01*
X122714285Y-113214285D01*
X122809523Y-113261904D01*
X122904761Y-113357142D01*
X122952380Y-113500000D01*
X122952380Y-113738095D01*
X177452380Y-169980952D02*
X176452380Y-169980952D01*
X176452380Y-169742857D01*
X176500000Y-169600000D01*
X176595238Y-169504761D01*
X176690476Y-169457142D01*
X176880952Y-169409523D01*
X177023809Y-169409523D01*
X177214285Y-169457142D01*
X177309523Y-169504761D01*
X177404761Y-169600000D01*
X177452380Y-169742857D01*
X177452380Y-169980952D01*
X177071428Y-168980952D02*
X177071428Y-168219047D01*
X177452380Y-168600000D02*
X176690476Y-168600000D01*
X177452380Y-144480952D02*
X176452380Y-144480952D01*
X176452380Y-144242857D01*
X176500000Y-144100000D01*
X176595238Y-144004761D01*
X176690476Y-143957142D01*
X176880952Y-143909523D01*
X177023809Y-143909523D01*
X177214285Y-143957142D01*
X177309523Y-144004761D01*
X177404761Y-144100000D01*
X177452380Y-144242857D01*
X177452380Y-144480952D01*
X177071428Y-143480952D02*
X177071428Y-142719047D01*
X177452380Y-143100000D02*
X176690476Y-143100000D01*
X177452380Y-118980952D02*
X176452380Y-118980952D01*
X176452380Y-118742857D01*
X176500000Y-118600000D01*
X176595238Y-118504761D01*
X176690476Y-118457142D01*
X176880952Y-118409523D01*
X177023809Y-118409523D01*
X177214285Y-118457142D01*
X177309523Y-118504761D01*
X177404761Y-118600000D01*
X177452380Y-118742857D01*
X177452380Y-118980952D01*
X177071428Y-117980952D02*
X177071428Y-117219047D01*
X177452380Y-117600000D02*
X176690476Y-117600000D01*
X168547619Y-101625880D02*
X168785714Y-102625880D01*
X168976190Y-101911595D01*
X169166666Y-102625880D01*
X169404761Y-101625880D01*
X169785714Y-102625880D02*
X169785714Y-101625880D01*
X170357142Y-102625880D01*
X170357142Y-101625880D01*
X171357142Y-101673500D02*
X171261904Y-101625880D01*
X171119047Y-101625880D01*
X170976190Y-101673500D01*
X170880952Y-101768738D01*
X170833333Y-101863976D01*
X170785714Y-102054452D01*
X170785714Y-102197309D01*
X170833333Y-102387785D01*
X170880952Y-102483023D01*
X170976190Y-102578261D01*
X171119047Y-102625880D01*
X171214285Y-102625880D01*
X171357142Y-102578261D01*
X171404761Y-102530642D01*
X171404761Y-102197309D01*
X171214285Y-102197309D01*
X169452380Y-104278880D02*
X169452380Y-103612214D01*
X169452380Y-103802690D02*
X169500000Y-103707452D01*
X169547619Y-103659833D01*
X169642857Y-103612214D01*
X169738095Y-103612214D01*
X170595238Y-104278880D02*
X170023809Y-104278880D01*
X170309523Y-104278880D02*
X170309523Y-103278880D01*
X170214285Y-103421738D01*
X170119047Y-103516976D01*
X170023809Y-103564595D01*
X127547619Y-101625880D02*
X127785714Y-102625880D01*
X127976190Y-101911595D01*
X128166666Y-102625880D01*
X128404761Y-101625880D01*
X128785714Y-102625880D02*
X128785714Y-101625880D01*
X129357142Y-102625880D01*
X129357142Y-101625880D01*
X130357142Y-101673500D02*
X130261904Y-101625880D01*
X130119047Y-101625880D01*
X129976190Y-101673500D01*
X129880952Y-101768738D01*
X129833333Y-101863976D01*
X129785714Y-102054452D01*
X129785714Y-102197309D01*
X129833333Y-102387785D01*
X129880952Y-102483023D01*
X129976190Y-102578261D01*
X130119047Y-102625880D01*
X130214285Y-102625880D01*
X130357142Y-102578261D01*
X130404761Y-102530642D01*
X130404761Y-102197309D01*
X130214285Y-102197309D01*
X128452380Y-104278880D02*
X128452380Y-103612214D01*
X128452380Y-103802690D02*
X128500000Y-103707452D01*
X128547619Y-103659833D01*
X128642857Y-103612214D01*
X128738095Y-103612214D01*
X129595238Y-104278880D02*
X129023809Y-104278880D01*
X129309523Y-104278880D02*
X129309523Y-103278880D01*
X129214285Y-103421738D01*
X129119047Y-103516976D01*
X129023809Y-103564595D01*
X122952380Y-95880952D02*
X121952380Y-95880952D01*
X121952380Y-95642857D01*
X122000000Y-95500000D01*
X122095238Y-95404761D01*
X122190476Y-95357142D01*
X122380952Y-95309523D01*
X122523809Y-95309523D01*
X122714285Y-95357142D01*
X122809523Y-95404761D01*
X122904761Y-95500000D01*
X122952380Y-95642857D01*
X122952380Y-95880952D01*
X122571428Y-94880952D02*
X122571428Y-94119047D01*
X176500000Y-90261904D02*
X176452380Y-90357142D01*
X176452380Y-90500000D01*
X176500000Y-90642857D01*
X176595238Y-90738095D01*
X176690476Y-90785714D01*
X176880952Y-90833333D01*
X177023809Y-90833333D01*
X177214285Y-90785714D01*
X177309523Y-90738095D01*
X177404761Y-90642857D01*
X177452380Y-90500000D01*
X177452380Y-90404761D01*
X177404761Y-90261904D01*
X177357142Y-90214285D01*
X177023809Y-90214285D01*
X177023809Y-90404761D01*
X177452380Y-89785714D02*
X176452380Y-89785714D01*
X177452380Y-89214285D01*
X176452380Y-89214285D01*
X177452380Y-88738095D02*
X176452380Y-88738095D01*
X176452380Y-88500000D01*
X176500000Y-88357142D01*
X176595238Y-88261904D01*
X176690476Y-88214285D01*
X176880952Y-88166666D01*
X177023809Y-88166666D01*
X177214285Y-88214285D01*
X177309523Y-88261904D01*
X177404761Y-88357142D01*
X177452380Y-88500000D01*
X177452380Y-88738095D01*
X176452380Y-98952380D02*
X177452380Y-98619047D01*
X176452380Y-98285714D01*
X177071428Y-97952380D02*
X177071428Y-97190476D01*
X177452380Y-97571428D02*
X176690476Y-97571428D01*
X177452380Y-95880952D02*
X176452380Y-95880952D01*
X176452380Y-95642857D01*
X176500000Y-95500000D01*
X176595238Y-95404761D01*
X176690476Y-95357142D01*
X176880952Y-95309523D01*
X177023809Y-95309523D01*
X177214285Y-95357142D01*
X177309523Y-95404761D01*
X177404761Y-95500000D01*
X177452380Y-95642857D01*
X177452380Y-95880952D01*
X177071428Y-94880952D02*
X177071428Y-94119047D01*
X177452380Y-93480952D02*
X176452380Y-93480952D01*
X176452380Y-93242857D01*
X176500000Y-93100000D01*
X176595238Y-93004761D01*
X176690476Y-92957142D01*
X176880952Y-92909523D01*
X177023809Y-92909523D01*
X177214285Y-92957142D01*
X177309523Y-93004761D01*
X177404761Y-93100000D01*
X177452380Y-93242857D01*
X177452380Y-93480952D01*
X177071428Y-92480952D02*
X177071428Y-91719047D01*
X177452380Y-92100000D02*
X176690476Y-92100000D01*
X121952380Y-98952380D02*
X122952380Y-98619047D01*
X121952380Y-98285714D01*
X122571428Y-97952380D02*
X122571428Y-97190476D01*
X122952380Y-97571428D02*
X122190476Y-97571428D01*
X122000000Y-89761904D02*
X121952380Y-89857142D01*
X121952380Y-90000000D01*
X122000000Y-90142857D01*
X122095238Y-90238095D01*
X122190476Y-90285714D01*
X122380952Y-90333333D01*
X122523809Y-90333333D01*
X122714285Y-90285714D01*
X122809523Y-90238095D01*
X122904761Y-90142857D01*
X122952380Y-90000000D01*
X122952380Y-89904761D01*
X122904761Y-89761904D01*
X122857142Y-89714285D01*
X122523809Y-89714285D01*
X122523809Y-89904761D01*
X122952380Y-89285714D02*
X121952380Y-89285714D01*
X122952380Y-88714285D01*
X121952380Y-88714285D01*
X122952380Y-88238095D02*
X121952380Y-88238095D01*
X121952380Y-88000000D01*
X122000000Y-87857142D01*
X122095238Y-87761904D01*
X122190476Y-87714285D01*
X122380952Y-87666666D01*
X122523809Y-87666666D01*
X122714285Y-87714285D01*
X122809523Y-87761904D01*
X122904761Y-87857142D01*
X122952380Y-88000000D01*
X122952380Y-88238095D01*
X122952380Y-93480952D02*
X121952380Y-93480952D01*
X121952380Y-93242857D01*
X122000000Y-93100000D01*
X122095238Y-93004761D01*
X122190476Y-92957142D01*
X122380952Y-92909523D01*
X122523809Y-92909523D01*
X122714285Y-92957142D01*
X122809523Y-93004761D01*
X122904761Y-93100000D01*
X122952380Y-93242857D01*
X122952380Y-93480952D01*
X122571428Y-92480952D02*
X122571428Y-91719047D01*
X122952380Y-92100000D02*
X122190476Y-92100000D01*
X175830000Y-173230000D02*
X173170000Y-173230000D01*
X175830000Y-173230000D02*
X175830000Y-165550000D01*
X175830000Y-165550000D02*
X173170000Y-165550000D01*
X173170000Y-173230000D02*
X173170000Y-165550000D01*
X173170000Y-175830000D02*
X173170000Y-174500000D01*
X174500000Y-175830000D02*
X173170000Y-175830000D01*
X175830000Y-147730000D02*
X173170000Y-147730000D01*
X175830000Y-147730000D02*
X175830000Y-140050000D01*
X175830000Y-140050000D02*
X173170000Y-140050000D01*
X173170000Y-147730000D02*
X173170000Y-140050000D01*
X173170000Y-150330000D02*
X173170000Y-149000000D01*
X174500000Y-150330000D02*
X173170000Y-150330000D01*
X175830000Y-122230000D02*
X173170000Y-122230000D01*
X175830000Y-122230000D02*
X175830000Y-114550000D01*
X175830000Y-114550000D02*
X173170000Y-114550000D01*
X173170000Y-122230000D02*
X173170000Y-114550000D01*
X173170000Y-124830000D02*
X173170000Y-123500000D01*
X174500000Y-124830000D02*
X173170000Y-124830000D01*
X173130000Y-181870000D02*
X178330000Y-181870000D01*
X173130000Y-179270000D02*
X173130000Y-181870000D01*
X178330000Y-176670000D02*
X178330000Y-181870000D01*
X173130000Y-179270000D02*
X175730000Y-179270000D01*
X175730000Y-179270000D02*
X175730000Y-176670000D01*
X175730000Y-176670000D02*
X178330000Y-176670000D01*
X173130000Y-178000000D02*
X173130000Y-176670000D01*
X173130000Y-176670000D02*
X174460000Y-176670000D01*
X173130000Y-156370000D02*
X178330000Y-156370000D01*
X173130000Y-153770000D02*
X173130000Y-156370000D01*
X178330000Y-151170000D02*
X178330000Y-156370000D01*
X173130000Y-153770000D02*
X175730000Y-153770000D01*
X175730000Y-153770000D02*
X175730000Y-151170000D01*
X175730000Y-151170000D02*
X178330000Y-151170000D01*
X173130000Y-152500000D02*
X173130000Y-151170000D01*
X173130000Y-151170000D02*
X174460000Y-151170000D01*
X173130000Y-130870000D02*
X178330000Y-130870000D01*
X173130000Y-128270000D02*
X173130000Y-130870000D01*
X178330000Y-125670000D02*
X178330000Y-130870000D01*
X173130000Y-128270000D02*
X175730000Y-128270000D01*
X175730000Y-128270000D02*
X175730000Y-125670000D01*
X175730000Y-125670000D02*
X178330000Y-125670000D01*
X173130000Y-127000000D02*
X173130000Y-125670000D01*
X173130000Y-125670000D02*
X174460000Y-125670000D01*
X121170000Y-181870000D02*
X126370000Y-181870000D01*
X121170000Y-179270000D02*
X121170000Y-181870000D01*
X126370000Y-176670000D02*
X126370000Y-181870000D01*
X121170000Y-179270000D02*
X123770000Y-179270000D01*
X123770000Y-179270000D02*
X123770000Y-176670000D01*
X123770000Y-176670000D02*
X126370000Y-176670000D01*
X121170000Y-178000000D02*
X121170000Y-176670000D01*
X121170000Y-176670000D02*
X122500000Y-176670000D01*
X121170000Y-156370000D02*
X126370000Y-156370000D01*
X121170000Y-153770000D02*
X121170000Y-156370000D01*
X126370000Y-151170000D02*
X126370000Y-156370000D01*
X121170000Y-153770000D02*
X123770000Y-153770000D01*
X123770000Y-153770000D02*
X123770000Y-151170000D01*
X123770000Y-151170000D02*
X126370000Y-151170000D01*
X121170000Y-152500000D02*
X121170000Y-151170000D01*
X121170000Y-151170000D02*
X122500000Y-151170000D01*
X121170000Y-130870000D02*
X126370000Y-130870000D01*
X121170000Y-128270000D02*
X121170000Y-130870000D01*
X126370000Y-125670000D02*
X126370000Y-130870000D01*
X121170000Y-128270000D02*
X123770000Y-128270000D01*
X123770000Y-128270000D02*
X123770000Y-125670000D01*
X123770000Y-125670000D02*
X126370000Y-125670000D01*
X121170000Y-127000000D02*
X121170000Y-125670000D01*
X121170000Y-125670000D02*
X122500000Y-125670000D01*
X126330000Y-173230000D02*
X123670000Y-173230000D01*
X126330000Y-173230000D02*
X126330000Y-165550000D01*
X126330000Y-165550000D02*
X123670000Y-165550000D01*
X123670000Y-173230000D02*
X123670000Y-165550000D01*
X123670000Y-175830000D02*
X123670000Y-174500000D01*
X125000000Y-175830000D02*
X123670000Y-175830000D01*
X126330000Y-147730000D02*
X123670000Y-147730000D01*
X126330000Y-147730000D02*
X126330000Y-140050000D01*
X126330000Y-140050000D02*
X123670000Y-140050000D01*
X123670000Y-147730000D02*
X123670000Y-140050000D01*
X123670000Y-150330000D02*
X123670000Y-149000000D01*
X125000000Y-150330000D02*
X123670000Y-150330000D01*
X126330000Y-122230000D02*
X123670000Y-122230000D01*
X126330000Y-122230000D02*
X126330000Y-114550000D01*
X126330000Y-114550000D02*
X123670000Y-114550000D01*
X123670000Y-122230000D02*
X123670000Y-114550000D01*
X123670000Y-124830000D02*
X123670000Y-123500000D01*
X125000000Y-124830000D02*
X123670000Y-124830000D01*
X173130000Y-100170000D02*
X174460000Y-100170000D01*
X173130000Y-101500000D02*
X173130000Y-100170000D01*
X175730000Y-100170000D02*
X178330000Y-100170000D01*
X175730000Y-102770000D02*
X175730000Y-100170000D01*
X173130000Y-102770000D02*
X175730000Y-102770000D01*
X178330000Y-100170000D02*
X178330000Y-105370000D01*
X173130000Y-102770000D02*
X173130000Y-105370000D01*
X173130000Y-105370000D02*
X178330000Y-105370000D01*
X121170000Y-100170000D02*
X122500000Y-100170000D01*
X121170000Y-101500000D02*
X121170000Y-100170000D01*
X123770000Y-100170000D02*
X126370000Y-100170000D01*
X123770000Y-102770000D02*
X123770000Y-100170000D01*
X121170000Y-102770000D02*
X123770000Y-102770000D01*
X126370000Y-100170000D02*
X126370000Y-105370000D01*
X121170000Y-102770000D02*
X121170000Y-105370000D01*
X121170000Y-105370000D02*
X126370000Y-105370000D01*
X174500000Y-99330000D02*
X173170000Y-99330000D01*
X173170000Y-99330000D02*
X173170000Y-98000000D01*
X173170000Y-96730000D02*
X173170000Y-89050000D01*
X175830000Y-89050000D02*
X173170000Y-89050000D01*
X175830000Y-96730000D02*
X175830000Y-89050000D01*
X175830000Y-96730000D02*
X173170000Y-96730000D01*
X125000000Y-99330000D02*
X123670000Y-99330000D01*
X123670000Y-99330000D02*
X123670000Y-98000000D01*
X123670000Y-96730000D02*
X123670000Y-89050000D01*
X126330000Y-89050000D02*
X123670000Y-89050000D01*
X126330000Y-96730000D02*
X126330000Y-89050000D01*
X126330000Y-96730000D02*
X123670000Y-96730000D01*
D11*
M02*
